<?xml version="1.0" encoding="utf-8"?>
<!-- Generator: Adobe Illustrator 16.0.0, SVG Export Plug-In . SVG Version: 6.00 Build 0)  -->
<!DOCTYPE svg PUBLIC "-//W3C//DTD SVG 1.1//EN" "http://www.w3.org/Graphics/SVG/1.1/DTD/svg11.dtd">
<svg version="1.1" xmlns="http://www.w3.org/2000/svg" xmlns:xlink="http://www.w3.org/1999/xlink" x="0px" y="0px" width="80px"
	 height="80px" viewBox="0 0 80 80" enable-background="new 0 0 80 80" xml:space="preserve">
<g id="Sachbeschaedigung" display="none">
	<circle display="inline" fill="#0A195E" cx="40" cy="40" r="31.539"/>
	<path display="inline" fill="#FFFFFF" d="M39.771,35.073c0.454-0.739,0.984-1.429,1.588-2.047l-7.42-6.065l-16.204,13.31
		l1.904,1.756l14.3-11.751L39.771,35.073z M57.387,45.158c0.633-1.213,0.996-2.588,0.996-4.051c0-4.839-3.923-8.762-8.764-8.762
		c-4.84,0-8.762,3.923-8.762,8.762c0,4.84,3.922,8.764,8.762,8.764c1.466,0,2.84-0.361,4.05-0.998l4.503,4.504l3.719-3.717
		L57.387,45.158z M49.619,46.367c-2.901,0-5.256-2.36-5.256-5.26s2.354-5.255,5.256-5.255c2.898,0,5.259,2.355,5.259,5.255
		C54.878,44.007,52.52,46.367,49.619,46.367z M38.053,41.107c0-1.441,0.276-2.818,0.762-4.091l-4.84-3.868L21.894,42.8v9.032h7.459
		v-7.434h8.501v7.434h7.451C41.059,50.117,38.053,45.96,38.053,41.107z"/>
</g>
<g id="MedicalRecord" display="none">
	<circle display="inline" fill="#0089CF" cx="40" cy="40" r="31.539"/>
	<path display="inline" fill="#FFFFFF" d="M41.363,40h-2.726v2.726h-2.726v2.726h2.726v2.727h2.726v-2.727h2.725v-2.726h-2.725V40z
		 M52.266,30.459h-4.088v-2.725c0-2.25-1.84-4.089-4.09-4.089h-8.176c-2.249,0-4.089,1.839-4.089,4.089v2.725h-4.089
		c-2.999,0-5.452,2.453-5.452,5.452v14.991c0,3,2.453,5.452,5.452,5.452h24.532c3,0,5.453-2.452,5.453-5.452V35.911
		C57.719,32.912,55.266,30.459,52.266,30.459z M34.548,27.734c0-0.739,0.625-1.363,1.363-1.363h8.176
		c0.74,0,1.363,0.624,1.363,1.363v2.725H34.548V27.734z M45.301,49.486c-2.928,2.926-7.673,2.926-10.602,0
		c-2.927-2.928-2.927-7.676,0-10.602c2.929-2.927,7.674-2.927,10.602,0C48.229,41.811,48.229,46.559,45.301,49.486z"/>
</g>
<g id="Notarzt" display="none">
	<circle display="inline" fill="#E60007" cx="40" cy="40" r="31.539"/>
	<path display="inline" fill="#FFFFFF" d="M29.202,45.399c-2.652,0-4.803,2.149-4.803,4.801c0,2.65,2.15,4.8,4.803,4.8
		C31.85,55,34,52.851,34,50.2C34,47.549,31.85,45.399,29.202,45.399z M29.202,52c-0.994,0-1.803-0.807-1.803-1.8
		s0.809-1.8,1.803-1.8c0.992,0,1.799,0.807,1.799,1.8S30.194,52,29.202,52z M50.799,45.399c-2.648,0-4.801,2.149-4.801,4.801
		c0,2.65,2.152,4.8,4.801,4.8c2.652,0,4.801-2.149,4.801-4.8C55.6,47.549,53.451,45.399,50.799,45.399z M50.799,52
		c-0.992,0-1.797-0.807-1.797-1.8s0.805-1.8,1.797-1.8s1.801,0.807,1.801,1.8S51.791,52,50.799,52z M56.801,29.8H44.799v13.199H43.6
		v-15.6c0-1.319-1.078-2.399-2.4-2.399h-18c-1.32,0-2.4,1.08-2.4,2.399v18c0,1.063,0.707,1.96,1.666,2.272
		c1.025-2.725,3.656-4.673,6.736-4.673c3.127,0,5.789,2.009,6.779,4.802h8.041c0.99-2.793,3.65-4.802,6.777-4.802
		c3.129,0,5.791,2.009,6.781,4.802h1.621V40.6L56.801,29.8z M38.801,37h-3.6v3.6h-4.801V37h-3.6v-4.801h3.6v-3.6h4.801v3.6h3.6V37z
		 M47.199,38.2v-6.001h7.727l1.201,6.001H47.199z"/>
</g>
<g id="Wasserwerk">
	<g>
		<circle fill="#57B59C" cx="40" cy="40" r="31.539"/>
		<path fill="#FFFFFF" d="M45.846,35.301l-0.018-0.029l-0.02-0.033C42.752,29.96,41.004,25.571,40,22.282
			c-1,3.289-2.75,7.676-5.805,12.956l-0.02,0.033l-0.018,0.029c-0.051,0.071-4.621,7.117-4.621,12.109
			c0,4.962,3.275,10.308,10.463,10.308c7.188,0,10.465-5.346,10.465-10.308C50.465,42.418,45.895,35.372,45.846,35.301z
			 M40.089,55.286l-0.283,0.009c-5.85,0-8.514-4.35-8.514-8.391c0-1.204,0.311-2.603,0.947-4.275
			c0.268-0.704,1.053-1.059,1.758-0.789c0.703,0.267,1.057,1.055,0.789,1.758c-0.51,1.338-0.768,2.451-0.768,3.307
			c0,2.613,1.516,5.665,5.787,5.665l0.24-0.009c0.008,0,0.014,0,0.021,0c0.745,0,1.352,0.596,1.364,1.342
			C41.441,54.655,40.842,55.273,40.089,55.286z"/>
	</g>
</g>
</svg>
