<?xml version="1.0" encoding="utf-8"?>
<!-- Generator: Adobe Illustrator 21.0.2, SVG Export Plug-In . SVG Version: 6.00 Build 0)  -->
<svg version="1.1" id="Ebene_1" xmlns="http://www.w3.org/2000/svg" xmlns:xlink="http://www.w3.org/1999/xlink" x="0px" y="0px"
	 width="80px" height="80px" viewBox="-1239 501 80 80" enable-background="new -1239 501 80 80" xml:space="preserve">
<circle fill="#ff97e5" cx="-1199" cy="540.9" r="31.6"/>
<g id="Ebene_1_1_">
</g>
<path fill="#FFFFFF" d="M-1184.7,535.8"/>
<g>
	<path fill="#000000" d="M-1177.8,550c0,0.1,0,0.2-0.1,0.3c-4.4,4.3-9.5,7-15.3,8.1c-7.9,1.5-15.2,0.2-22.1-4
		c-0.9-0.6-1.8-1.1-2.5-1.7c-0.7-0.6-1.4-1.2-2.2-2c-0.1-0.1-0.2-0.3-0.2-0.6c0-0.3,0.1-0.5,0.2-0.7c0.3-0.3,0.9-0.9,1.8-1.8
		c0.1-0.1,0.2-0.1,0.3-0.1s0.1,0,0.2,0.1l0.3,0.3c0.3,0.3,0.4,0.4,0.5,0.4c0.1,0,0.2,0,0.3,0c0.1-0.1,0.2-0.3,0.4-0.6l1.4-2.3
		l1.5-2.3c0.1-0.1,0.1-0.2,0.1-0.3c0-0.1-0.1-0.1-0.2-0.2c-2-0.9-3.5-2.1-4.5-3.6c-0.5-0.8-0.8-1.7-0.8-2.7c0-1,0.2-2,0.7-2.9
		c0.5-0.9,1.1-1.6,1.9-2.1c0.8-0.5,1.6-0.7,2.4-0.6c0.8,0.1,1.6,0.4,2.3,1c0.1,0.1,0.3,0.2,0.4,0.2c0.1,0,0.2-0.1,0.4-0.2
		c0.5-0.5,1.2-0.8,2-0.9c0.1,0,0.2,0,0.3,0c0,0,0.1,0.1,0.1,0.3l0,3.4c0,0.9,0.3,1.6,0.8,2.1c0.6,0.6,1.3,0.8,2.1,0.8h4.7
		c0.9,0,1.7-0.3,2.2-0.8c0.5-0.5,0.8-1.3,0.8-2.3v-4.5c0-0.4,0.1-0.8,0.4-1c0.2-0.1,0.3-0.3,0.5-0.6c1.5-2.1,1.6-2.3,0.5-0.7
		c0.8,1.4,1.9,2.4,3.1,3.1c1.6,0.9,3.2,1.3,4.9,1.1c0.2,0,0.3,0,0.3,0c0,0,0,0.1,0,0.3c-0.3,1.4-0.4,3.1-0.5,5.1
		c0,0.2,0.1,0.5,0.2,0.7l6.5,10.3c0.1,0.2,0.2,0.3,0.3,0.3s0.2-0.1,0.3-0.2l0.3-0.2c0.3-0.3,0.6-0.5,0.7-0.5c0.1,0,0.3,0.2,0.6,0.5
		c1.1,1.1,1.8,1.7,1.9,1.8C-1177.8,549.9-1177.8,549.9-1177.8,550z M-1214.3,537.3c0.4,1,1,1.5,1.7,1.7c0.2,0.1,0.3,0.1,0.4,0
		c0.1,0,0.1-0.2,0-0.4c-0.2-1.5-0.3-2.3-0.3-2.5c-0.1-1,0-1.8,0.3-2.6c0-0.1,0-0.1,0-0.2c0,0-0.1-0.1-0.2-0.1
		c-0.4-0.1-0.7-0.1-1.1,0c-0.3,0.1-0.6,0.4-0.8,0.7c-0.3,0.4-0.4,1-0.4,1.7C-1214.6,536.3-1214.4,536.9-1214.3,537.3L-1214.3,537.3z
		 M-1184.8,550.8c0-0.1,0-0.1-0.1-0.3c-1.9-3-3.9-6.2-6-9.5c-0.1-0.1-0.2-0.2-0.2-0.2s-0.2,0-0.3,0.1c-0.4,0.3-0.9,0.5-1.4,0.7
		c-0.7,0.3-1.4,0.4-2.3,0.6c-0.6,0.1-1.4,0.1-2.3,0.1c-2.7,0.1-5.9-0.2-9.6-0.7c-0.6-0.1-1.1,0.2-1.4,0.7l-5.1,8
		c-0.1,0.2-0.2,0.4-0.2,0.4c0,0.1,0.1,0.2,0.4,0.3l0.8,0.5c4,2.3,8.4,3.5,13.2,3.5c1.5,0,2.9-0.1,4.2-0.3c3.6-0.6,7-1.8,10.1-3.8
		C-1184.8,550.9-1184.8,550.9-1184.8,550.8z M-1207.8,531c0-0.1,0-0.2,0.1-0.3c0-0.1,0.1-0.1,0.3-0.1c0.5,0,1.1,0,1.8,0.1l1.9,0.1
		c0.8,0,1.4,0,1.9,0c0.7-0.1,1.3-0.2,1.9-0.3c0.3-0.1,0.9-0.3,1.5-0.7v4.8c0,0.7-0.2,1.2-0.6,1.6c-0.4,0.4-1,0.6-1.6,0.6
		c-1.6,0-3.2,0-4.9,0c-0.7,0-1.2-0.2-1.6-0.6c-0.4-0.4-0.6-1-0.6-1.7C-1207.8,533.1-1207.8,531.9-1207.8,531z M-1188.4,531.1
		c-1.5,0.1-2.9-0.1-4.3-0.8c-1.4-0.7-2.4-1.7-3.2-3c-0.1-0.2-0.1-0.5,0-0.7c1.4-2.1,3.5-3.3,6.2-3.7c0.8-0.1,1.5-0.1,2.3-0.2
		c1.1,0.1,2,0.2,2.6,0.3c1,0.2,1.8,0.5,2.5,0.9c0.5,0.3,1,0.7,1.4,1.3c0.3,0.4,0.7,0.9,1.1,1.5c0.2,0.3,0.2,0.5-0.1,0.6
		c-0.4,0.1-0.7,0.2-0.8,0.3c-0.3,0.1-0.4,0.3-0.4,0.6c0,0.4-0.1,0.6-0.1,0.8c-0.1,0.3-0.2,0.5-0.3,0.7l-0.4,0.5
		c-0.2,0.2-0.3,0.4-0.4,0.6c-0.1,0.2-0.2,0.4-0.3,0.5c0,0.2-0.1,0.4-0.1,0.7c0,0.3-0.1,0.5-0.1,0.7c-0.1,0.2-0.1,0.4-0.3,0.6
		c-0.1,0.2-0.3,0.3-0.4,0.5c-0.3,0.3-0.7,0.5-1,0.4c-0.3-0.1-0.5-0.3-0.7-0.8c-0.1-0.3-0.2-0.6-0.3-1c-0.1-0.3-0.1-0.6-0.2-1l-0.1-1
		c-0.1-0.7-0.2-1.1-0.3-1.3c-0.1-0.3-0.3-0.4-0.6-0.2c-0.5,0.3-0.8,0.8-1.1,1.5c-0.1,0.2-0.1,0.3-0.3,0.4
		C-1188,531-1188.2,531.1-1188.4,531.1L-1188.4,531.1z"/>
</g>
</svg>
