<?xml version="1.0" encoding="utf-8"?>
<!-- Generator: Adobe Illustrator 19.2.1, SVG Export Plug-In . SVG Version: 6.00 Build 0)  -->
<svg version="1.1" id="Layer_1" xmlns="http://www.w3.org/2000/svg" xmlns:xlink="http://www.w3.org/1999/xlink" x="0px" y="0px"
	 width="30px" height="28px" viewBox="0 0 30 28" style="enable-background:new 0 0 30 28;" xml:space="preserve">
<style type="text/css">
	.st0{display:none;}
	.st1{fill:#3A3A3A;}
</style>
<g id="Layer_1_1_" class="st0">
</g>
<g id="Layer_2">
	<path class="st1" d="M15,22.4l3.4-4.6c0,0,3.2,0.3,4.5-1.5c0,0,0.1-0.5-0.5-1c0,0,0.7-9.2-2.3-10.5c0,0-1.5-1.9-3.7-1.3l-0.5-1.3
		c0,0-5.9-0.6-7.3,6.3c0,0-0.4,6.1-1.5,7.4s4.5,2,4.5,2L15,22.4z"/>
	<polygon class="st1" points="11.1,19.1 11.1,22 13.8,22.8 	"/>
	<polygon class="st1" points="16.4,22.8 18.8,19.1 18.8,22 	"/>
	<path class="st1" d="M9.9,19.4v3.4c0,0,5.5,3.2,10.2,0v-3.4c0,0,6.4,1.7,5.9,6.3H3.9C3.9,25.7,3.7,19.8,9.9,19.4z"/>
</g>
</svg>
