<?xml version="1.0" encoding="utf-8"?>
<!-- Generator: Adobe Illustrator 19.2.1, SVG Export Plug-In . SVG Version: 6.00 Build 0)  -->
<svg version="1.1" id="Layer_1" xmlns="http://www.w3.org/2000/svg" xmlns:xlink="http://www.w3.org/1999/xlink" x="0px" y="0px"
	 width="30px" height="28px" viewBox="0 0 30 28" style="enable-background:new 0 0 30 28;" xml:space="preserve">
<style type="text/css">
	.st0{display:none;}
	.st1{fill:#3A3A3A;}
</style>
<g id="Layer_1_1_" class="st0">
</g>
<g id="Layer_2">
	<path class="st1" d="M20.6,7.5c-0.4-3.6-2.3-4.9-2.3-4.9S17.5,1.5,15,1.5s-3.3,1.1-3.3,1.1S9.8,3.9,9.4,7.5C9,11.1,12.3,15,12.3,15
		v1.2c0.7,1.2,2.7,1.2,2.7,1.2s2,0,2.7-1.2V15C17.7,15,21,11.1,20.6,7.5z"/>
	<circle class="st1" cx="15" cy="19.1" r="1.1"/>
	<path class="st1" d="M15,26.5v-6.3c0,0-1.8,2.5-1.4,4.2"/>
	<path class="st1" d="M18.8,16.8l-2.4,7.5c0.4-1.6-1.4-4.2-1.4-4.2s-1.8,2.5-1.4,4.2l-2.4-7.5c0,0-7.1,2.2-7,6.2
		C4.5,27,15,26.5,15,26.5S25.5,27,25.7,23C25.9,19,18.8,16.8,18.8,16.8z"/>
</g>
</svg>
