<?xml version="1.0" encoding="utf-8"?>
<!-- Generator: Adobe Illustrator 27.5.0, SVG Export Plug-In . SVG Version: 6.00 Build 0)  -->
<svg version="1.1" id="Layer_1" xmlns="http://www.w3.org/2000/svg" xmlns:xlink="http://www.w3.org/1999/xlink" x="0px" y="0px"
	 viewBox="0 0 1724 300" style="enable-background:new 0 0 1724 300;" xml:space="preserve">
<style type="text/css">
	.st0{fill:#FFFFFF;}
	.st1{fill:#0072CE;}
	.st2{display:none;}
	.st3{display:inline;fill:none;stroke:#F4EB1F;stroke-width:1;stroke-miterlimit:9.9999;}
	.st4{display:inline;fill:none;stroke:#F4EB1F;stroke-linecap:round;stroke-linejoin:round;stroke-miterlimit:10;}
</style>
<g id="Logo">
	<circle class="st0" cx="150.2" cy="149.2" r="128.6"/>
	<g>
		<path class="st0" d="M338.4,256.9c0.9,0.7,1.9,1.3,3,1.8s2.2,1,3.4,1.4c1.2,0.4,2.3,0.6,3.5,0.8c1.2,0.2,2.3,0.3,3.4,0.3
			c4.1,0,7.2-0.8,9.3-2.4s3.1-3.9,3.1-6.9c0-1.4-0.2-2.7-0.7-3.8s-1.2-2.1-2.2-3s-2.3-1.9-3.8-2.8c-1.5-0.9-3.4-2-5.5-3.1
			c-2.3-1.3-4.3-2.5-6-3.6s-3-2.3-4.1-3.5s-1.8-2.5-2.3-3.8s-0.7-2.9-0.7-4.7c0-2.2,0.5-4.2,1.4-5.9c0.9-1.8,2.2-3.2,3.8-4.5
			c1.6-1.2,3.5-2.2,5.6-2.8c2.1-0.7,4.4-1,6.9-1c4.3,0,7.9,0.6,10.8,1.8v5.6c-3.2-1.9-7-2.8-11.3-2.8c-1.6,0-3.2,0.2-4.6,0.6
			c-1.4,0.4-2.7,1-3.8,1.7s-1.9,1.7-2.6,2.8c-0.6,1.1-0.9,2.4-0.9,3.9c0,1.4,0.2,2.6,0.6,3.7s1.1,2,2,2.9s2.1,1.8,3.7,2.7
			c1.5,0.9,3.4,1.9,5.5,3.1c2.3,1.2,4.3,2.4,6,3.6c1.7,1.2,3.1,2.4,4.2,3.6s2,2.6,2.5,4c0.6,1.4,0.8,3,0.8,4.7
			c0,2.4-0.4,4.5-1.3,6.3s-2.1,3.3-3.7,4.5s-3.5,2.1-5.7,2.7s-4.6,0.9-7.3,0.9c-0.9,0-1.9-0.1-3.1-0.2s-2.4-0.3-3.6-0.6
			s-2.4-0.6-3.5-1s-2-0.8-2.7-1.2L338.4,256.9L338.4,256.9z"/>
		<path class="st0" d="M399.1,265.8c-2.9,0-5.5-0.5-7.8-1.4c-2.3-1-4.3-2.3-5.9-4.1c-1.6-1.8-2.9-3.9-3.7-6.3
			c-0.9-2.5-1.3-5.2-1.3-8.2c0-3.3,0.5-6.2,1.4-8.7c0.9-2.6,2.2-4.7,3.9-6.5c1.7-1.8,3.7-3.2,6.1-4.1c2.4-0.9,5.1-1.4,8-1.4
			c2.8,0,5.4,0.5,7.6,1.4c2.3,0.9,4.2,2.3,5.8,4s2.8,3.9,3.6,6.4s1.3,5.4,1.3,8.6c0,3-0.4,5.8-1.3,8.3s-2.1,4.7-3.8,6.5
			c-1.6,1.8-3.6,3.2-5.9,4.2S402,265.8,399.1,265.8z M399.4,229.2c-2.1,0-4.1,0.4-5.8,1.1c-1.7,0.7-3.2,1.8-4.4,3.2
			c-1.2,1.4-2.2,3.1-2.8,5.2c-0.7,2-1,4.4-1,7c0,2.4,0.3,4.6,1,6.6s1.6,3.6,2.8,5c1.2,1.4,2.7,2.5,4.4,3.2c1.7,0.7,3.7,1.1,5.8,1.1
			c2.2,0,4.1-0.4,5.8-1.1s3.1-1.8,4.3-3.2c1.2-1.4,2.1-3.1,2.6-5.1c0.6-2,0.9-4.3,0.9-6.9c0-5.3-1.2-9.3-3.5-12.1
			S403.8,229.2,399.4,229.2z"/>
		<path class="st0" d="M448.4,211.8c-1.1-0.7-2.5-1.1-4.2-1.1c-4.6,0-6.9,3-6.9,9v6.2h9.7v4.3h-9.7v34.7h-4.9v-34.7h-6.8v-4.3h6.8
			v-6.6c0-2,0.2-3.7,0.7-5.3s1.2-2.9,2.2-4.1c1-1.1,2.2-2,3.6-2.6c1.5-0.6,3.1-0.9,5-0.9c1.8,0,3.3,0.2,4.3,0.7v4.7H448.4z"/>
		<path class="st0" d="M476.9,264.4c-1.7,0.8-3.5,1.3-5.5,1.3c-6.3,0-9.4-3.6-9.4-10.9v-24.6h-6.9v-4.3h6.9v-9.8l4.9-1.6v11.4H477
			v4.3h-10.1V254c0,2.6,0.4,4.5,1.3,5.7s2.3,1.8,4.4,1.8c1.5,0,3-0.5,4.4-1.4L476.9,264.4L476.9,264.4z"/>
		<path class="st0" d="M526.2,264.9h-4.9l-8.3-28.6c-0.3-0.9-0.5-2-0.6-3.5h-0.2c-0.1,0.4-0.1,0.9-0.2,1.4c-0.1,0.6-0.3,1.2-0.6,2
			l-9.1,28.7h-4.8l-11.8-39h5.2l8.6,30.2c0.3,0.9,0.4,2,0.5,3.4h0.3c0.1-0.5,0.1-1,0.2-1.6s0.3-1.2,0.5-1.9l9.4-30.2h4l8.5,30.3
			c0.2,0.9,0.4,2,0.6,3.4h0.3c0-0.4,0-0.9,0.2-1.5s0.3-1.2,0.5-1.9l8.6-30.3h4.9L526.2,264.9z"/>
		<path class="st0" d="M570.6,264.9V258h-0.2c-1.3,2.5-3,4.4-5.2,5.8s-4.7,2.1-7.4,2.1c-1.9,0-3.6-0.3-5.1-0.8s-2.8-1.3-3.8-2.3
			c-1.1-1-1.9-2.2-2.4-3.5c-0.6-1.4-0.9-2.9-0.9-4.5c0-3.5,1.1-6.3,3.3-8.4s5.5-3.5,9.9-4.1l11.8-1.7c0-7.5-2.9-11.2-8.7-11.2
			c-4.5,0-8.8,1.7-12.6,5v-5.3c0.8-0.6,1.7-1.1,2.8-1.6c1-0.5,2.1-0.9,3.3-1.2s2.3-0.6,3.5-0.8s2.4-0.3,3.5-0.3
			c4.3,0,7.6,1.2,9.8,3.7s3.3,6.1,3.3,10.9v25.4h-4.9V264.9z M560.5,246c-1.8,0.3-3.3,0.6-4.5,1s-2.3,0.9-3.1,1.5s-1.4,1.4-1.8,2.4
			s-0.6,2.1-0.6,3.5c0,1,0.2,2,0.6,2.9c0.4,0.9,0.9,1.7,1.6,2.3c0.7,0.6,1.5,1.1,2.6,1.5c1,0.4,2.1,0.5,3.4,0.5c1.7,0,3.3-0.3,4.8-1
			c1.4-0.7,2.7-1.6,3.8-2.7c1.1-1.2,1.9-2.6,2.5-4.2c0.6-1.6,0.9-3.4,0.9-5.3v-3.8L560.5,246z"/>
		<path class="st0" d="M609.7,230.9c-1.1-0.8-2.6-1.3-4.4-1.3c-1.3,0-2.4,0.2-3.4,0.7s-1.9,1.2-2.6,2c-0.8,0.8-1.4,1.8-1.9,2.9
			c-0.5,1.1-0.9,2.3-1.3,3.4c-0.3,1.2-0.5,2.4-0.7,3.6s-0.2,2.4-0.2,3.5v19.1h-4.8v-39h4.8v8.3h0.2c0.5-1.4,1-2.7,1.7-3.8
			s1.5-2.1,2.4-2.9c0.9-0.8,1.9-1.4,3-1.8c1.1-0.4,2.2-0.6,3.4-0.6c0.8,0,1.5,0.1,2.1,0.2c0.6,0.1,1.2,0.3,1.7,0.5V230.9z"/>
		<path class="st0" d="M622.1,246.3c0,2.4,0.3,4.5,1,6.4s1.5,3.5,2.6,4.8s2.5,2.3,4.2,3c1.6,0.7,3.5,1,5.5,1c4.4,0,8.5-1.5,12.5-4.6
			v4.8c-3.7,2.7-8.3,4-13.6,4c-2.6,0-5-0.5-7.1-1.4s-3.9-2.2-5.4-4c-1.5-1.7-2.7-3.9-3.5-6.4s-1.2-5.4-1.2-8.7
			c0-2.9,0.4-5.6,1.3-8.1c0.9-2.5,2.1-4.6,3.7-6.5c1.6-1.8,3.4-3.2,5.6-4.3s4.5-1.5,7.1-1.5c2.5,0,4.7,0.4,6.7,1.3s3.5,2.1,4.9,3.8
			c1.3,1.6,2.3,3.6,3,5.9c0.7,2.3,1,5,1,7.8v2.4h-28.3V246.3z M645.3,242c-0.1-4.1-1-7.2-2.9-9.4s-4.4-3.4-7.7-3.4
			c-1.7,0-3.2,0.3-4.6,0.9c-1.4,0.6-2.6,1.4-3.7,2.5s-1.9,2.5-2.6,4c-0.7,1.6-1.2,3.4-1.5,5.4H645.3z"/>
		<path class="st0" d="M709.7,211.8c-1.1-0.7-2.5-1.1-4.2-1.1c-4.6,0-6.9,3-6.9,9v6.2h9.7v4.3h-9.7v34.7h-4.9v-34.7h-6.8v-4.3h6.8
			v-6.6c0-2,0.2-3.7,0.7-5.3s1.2-2.9,2.2-4.1c1-1.1,2.2-2,3.6-2.6s3.1-0.9,5-0.9c1.8,0,3.3,0.2,4.3,0.7v4.7H709.7z"/>
		<path class="st0" d="M733.7,265.8c-2.9,0-5.5-0.5-7.8-1.4s-4.3-2.3-5.9-4.1c-1.6-1.8-2.9-3.9-3.7-6.3c-0.9-2.5-1.3-5.2-1.3-8.2
			c0-3.3,0.5-6.2,1.4-8.7c0.9-2.6,2.2-4.7,3.9-6.5s3.7-3.2,6.1-4.1c2.4-0.9,5.1-1.4,8-1.4c2.8,0,5.4,0.5,7.6,1.4
			c2.3,0.9,4.2,2.3,5.8,4s2.8,3.9,3.6,6.4s1.3,5.4,1.3,8.6c0,3-0.4,5.8-1.3,8.3c-0.9,2.5-2.1,4.7-3.8,6.5c-1.6,1.8-3.6,3.2-5.9,4.2
			S736.6,265.8,733.7,265.8z M734,229.2c-2.1,0-4.1,0.4-5.8,1.1c-1.7,0.7-3.2,1.8-4.4,3.2s-2.2,3.1-2.8,5.2c-0.7,2-1,4.4-1,7
			c0,2.4,0.3,4.6,1,6.6s1.6,3.6,2.8,5c1.2,1.4,2.7,2.5,4.4,3.2s3.7,1.1,5.8,1.1c2.2,0,4.1-0.4,5.8-1.1s3.1-1.8,4.3-3.2
			c1.2-1.4,2-3.1,2.6-5.1s0.9-4.3,0.9-6.9c0-5.3-1.2-9.3-3.5-12.1S738.4,229.2,734,229.2z"/>
		<path class="st0" d="M785,230.9c-1.1-0.8-2.6-1.3-4.4-1.3c-1.3,0-2.4,0.2-3.4,0.7s-1.9,1.2-2.6,2c-0.8,0.8-1.4,1.8-1.9,2.9
			c-0.5,1.1-0.9,2.3-1.3,3.4c-0.3,1.2-0.5,2.4-0.7,3.6s-0.2,2.4-0.2,3.5v19.1h-4.8v-39h4.8v8.3h0.2c0.5-1.4,1-2.7,1.7-3.8
			s1.5-2.1,2.4-2.9c0.9-0.8,1.9-1.4,3-1.8c1.1-0.4,2.2-0.6,3.4-0.6c0.8,0,1.5,0.1,2.1,0.2c0.6,0.1,1.2,0.3,1.7,0.5V230.9z"/>
		<path class="st0" d="M822.4,256.9c0.9,0.7,1.9,1.3,3,1.8s2.2,1,3.4,1.4s2.3,0.6,3.5,0.8s2.3,0.3,3.4,0.3c4.1,0,7.2-0.8,9.3-2.4
			s3.1-3.9,3.1-6.9c0-1.4-0.2-2.7-0.7-3.8s-1.2-2.1-2.2-3s-2.3-1.9-3.8-2.8c-1.5-0.9-3.4-2-5.5-3.1c-2.3-1.3-4.3-2.5-6-3.6
			s-3-2.3-4.1-3.5s-1.8-2.5-2.3-3.8c-0.5-1.4-0.7-2.9-0.7-4.7c0-2.2,0.5-4.2,1.4-5.9s2.2-3.2,3.8-4.5c1.6-1.2,3.5-2.2,5.6-2.8
			c2.1-0.7,4.4-1,6.9-1c4.3,0,7.9,0.6,10.8,1.8v5.6c-3.2-1.9-7-2.8-11.3-2.8c-1.6,0-3.2,0.2-4.6,0.6c-1.4,0.4-2.7,1-3.8,1.7
			s-1.9,1.7-2.6,2.8c-0.6,1.1-0.9,2.4-0.9,3.9c0,1.4,0.2,2.6,0.6,3.7c0.4,1,1.1,2,2,2.9s2.1,1.8,3.7,2.7c1.5,0.9,3.4,1.9,5.5,3.1
			c2.3,1.2,4.3,2.4,6,3.6c1.7,1.2,3.1,2.4,4.2,3.6s2,2.6,2.5,4s0.8,3,0.8,4.7c0,2.4-0.4,4.5-1.3,6.3c-0.9,1.8-2.1,3.3-3.7,4.5
			c-1.6,1.2-3.5,2.1-5.7,2.7s-4.6,0.9-7.3,0.9c-0.9,0-1.9-0.1-3.1-0.2c-1.2-0.1-2.4-0.3-3.6-0.6s-2.4-0.6-3.5-1s-2-0.8-2.7-1.2v-5.8
			H822.4z"/>
		<path class="st0" d="M915.3,264.9V242c0-2.3-0.2-4.3-0.5-5.9c-0.4-1.6-0.9-2.9-1.7-3.9s-1.7-1.8-2.9-2.2s-2.5-0.7-4.1-0.7
			c-1.4,0-2.8,0.3-4,1c-1.3,0.7-2.4,1.6-3.3,2.8c-1,1.2-1.7,2.6-2.2,4.2c-0.5,1.6-0.8,3.3-0.8,5.2V265h-4.9v-23.4
			c0-8.2-3.1-12.3-9.4-12.3c-1.4,0-2.8,0.3-4,1s-2.3,1.6-3.3,2.7c-0.9,1.2-1.7,2.6-2.2,4.2s-0.8,3.4-0.8,5.4V265h-4.9v-39h4.9v6.3
			h0.2c2.7-4.8,6.7-7.2,12-7.2c1.4,0,2.7,0.2,3.9,0.6s2.3,1,3.3,1.8c1,0.7,1.8,1.6,2.5,2.7c0.7,1,1.2,2.2,1.6,3.4
			c1.4-2.8,3.2-4.9,5.4-6.3s4.7-2.2,7.4-2.2c8.6,0,12.8,5.3,12.8,15.8V265h-5V264.9z"/>
		<path class="st0" d="M957.3,264.9V258h-0.2c-1.3,2.5-3,4.4-5.2,5.8s-4.7,2.1-7.4,2.1c-1.9,0-3.6-0.3-5.1-0.8s-2.8-1.3-3.8-2.3
			c-1.1-1-1.9-2.2-2.4-3.5c-0.6-1.4-0.9-2.9-0.9-4.5c0-3.5,1.1-6.3,3.3-8.4s5.5-3.5,9.9-4.1l11.8-1.7c0-7.5-2.9-11.2-8.7-11.2
			c-4.5,0-8.8,1.7-12.6,5v-5.3c0.8-0.6,1.7-1.1,2.8-1.6c1-0.5,2.1-0.9,3.3-1.2s2.3-0.6,3.5-0.8s2.4-0.3,3.5-0.3
			c4.3,0,7.6,1.2,9.8,3.7s3.3,6.1,3.3,10.9v25.4h-4.9V264.9z M947.2,246c-1.8,0.3-3.3,0.6-4.5,1s-2.3,0.9-3.1,1.5s-1.4,1.4-1.8,2.4
			s-0.6,2.1-0.6,3.5c0,1,0.2,2,0.6,2.9c0.4,0.9,0.9,1.7,1.6,2.3c0.7,0.6,1.5,1.1,2.6,1.5c1,0.4,2.1,0.5,3.4,0.5c1.7,0,3.3-0.3,4.8-1
			c1.4-0.7,2.7-1.6,3.8-2.7c1.1-1.2,1.9-2.6,2.5-4.2c0.6-1.6,0.9-3.4,0.9-5.3v-3.8L947.2,246z"/>
		<path class="st0" d="M996.4,230.9c-1.1-0.8-2.6-1.3-4.4-1.3c-1.3,0-2.4,0.2-3.4,0.7s-1.9,1.2-2.6,2c-0.8,0.8-1.4,1.8-1.9,2.9
			c-0.5,1.1-0.9,2.3-1.3,3.4c-0.3,1.2-0.5,2.4-0.7,3.6s-0.2,2.4-0.2,3.5v19.1h-4.8v-39h4.8v8.3h0.2c0.5-1.4,1-2.7,1.7-3.8
			s1.5-2.1,2.4-2.9c0.9-0.8,1.9-1.4,3-1.8c1.1-0.4,2.2-0.6,3.4-0.6c0.8,0,1.5,0.1,2.1,0.2c0.6,0.1,1.2,0.3,1.7,0.5V230.9z"/>
		<path class="st0" d="M1026.7,264.4c-1.7,0.8-3.5,1.3-5.5,1.3c-6.3,0-9.4-3.6-9.4-10.9v-24.6h-6.9v-4.3h6.9v-9.8l4.9-1.6v11.4h10.1
			v4.3h-10.1V254c0,2.6,0.4,4.5,1.3,5.7c0.9,1.2,2.3,1.8,4.4,1.8c1.5,0,3-0.5,4.4-1.4L1026.7,264.4L1026.7,264.4z"/>
		<path class="st0" d="M1115.5,264.9v-37.7c0-1.9,0.2-5,0.5-9.3h-0.2c-0.4,1.1-0.7,2.1-1,3s-0.6,1.5-0.8,2.1l-19,42h-2.2l-19.1-41.7
			c-0.6-1.3-1.1-3.1-1.7-5.4h-0.2c0.1,1.2,0.2,2.5,0.2,4s0.1,3.2,0.1,5V265h-5v-54.6h6l18.5,41.1c0.4,0.9,0.8,1.7,1.1,2.6
			c0.4,0.9,0.7,1.9,1,2.9h0.2c0.4-1,0.7-1.9,1-2.8s0.7-1.7,1.1-2.7l18.7-41.1h5.7V265h-4.9V264.9z"/>
		<path class="st0" d="M1153.3,265.8c-2.9,0-5.5-0.5-7.8-1.4s-4.3-2.3-5.9-4.1c-1.6-1.8-2.9-3.9-3.7-6.3c-0.9-2.5-1.3-5.2-1.3-8.2
			c0-3.3,0.5-6.2,1.4-8.7c0.9-2.6,2.2-4.7,3.9-6.5s3.7-3.2,6.1-4.1c2.4-0.9,5.1-1.4,8-1.4c2.8,0,5.4,0.5,7.6,1.4
			c2.3,0.9,4.2,2.3,5.8,4s2.8,3.9,3.6,6.4s1.3,5.4,1.3,8.6c0,3-0.4,5.8-1.3,8.3s-2.1,4.7-3.8,6.5c-1.6,1.8-3.6,3.2-5.9,4.2
			S1156.3,265.8,1153.3,265.8z M1153.7,229.2c-2.1,0-4.1,0.4-5.8,1.1c-1.7,0.7-3.2,1.8-4.4,3.2s-2.2,3.1-2.8,5.2c-0.7,2-1,4.4-1,7
			c0,2.4,0.3,4.6,1,6.6s1.6,3.6,2.8,5c1.2,1.4,2.7,2.5,4.4,3.2c1.7,0.7,3.7,1.1,5.8,1.1c2.2,0,4.1-0.4,5.8-1.1s3.1-1.8,4.3-3.2
			c1.2-1.4,2-3.1,2.6-5.1s0.9-4.3,0.9-6.9c0-5.3-1.2-9.3-3.5-12.1S1158.1,229.2,1153.7,229.2z"/>
		<path class="st0" d="M1190.2,258.6v6.3h-4.9v-57.7h4.9v26.2h0.2c1.4-2.7,3.4-4.8,5.8-6.2s5.2-2.2,8.2-2.2c2.5,0,4.7,0.5,6.7,1.4
			s3.6,2.2,5,3.9s2.4,3.7,3.1,6.1c0.7,2.4,1.1,5,1.1,7.9c0,3.2-0.4,6.2-1.2,8.8c-0.8,2.7-2,4.9-3.5,6.8s-3.4,3.4-5.5,4.4
			c-2.2,1.1-4.6,1.6-7.3,1.6c-5.5,0-9.6-2.4-12.3-7.2L1190.2,258.6L1190.2,258.6z M1190.2,248.7c0,1.8,0.3,3.4,0.9,5
			s1.4,2.9,2.5,4.1s2.4,2.1,3.9,2.8s3.2,1,5,1c2,0,3.7-0.4,5.3-1.2c1.6-0.8,2.9-2,4-3.5s2-3.4,2.6-5.5c0.6-2.2,0.9-4.6,0.9-7.2
			c0-2.3-0.3-4.3-0.8-6.2c-0.6-1.8-1.4-3.4-2.4-4.7s-2.3-2.3-3.7-3s-3.1-1-4.9-1c-2,0-3.9,0.4-5.5,1.1c-1.6,0.7-3,1.8-4.2,3.1
			s-2,2.8-2.6,4.6c-0.6,1.7-0.9,3.6-0.9,5.5v5.1H1190.2z"/>
		<path class="st0" d="M1235.7,216c-0.9,0-1.8-0.3-2.4-1c-0.7-0.7-1-1.5-1-2.5s0.3-1.8,1-2.5s1.5-1,2.4-1c0.5,0,0.9,0.1,1.4,0.2
			c0.4,0.2,0.8,0.4,1.1,0.7s0.6,0.7,0.8,1.1c0.2,0.4,0.3,0.9,0.3,1.4s-0.1,0.9-0.3,1.4c-0.2,0.4-0.4,0.8-0.8,1.1
			c-0.3,0.3-0.7,0.6-1.1,0.7C1236.6,215.9,1236.2,216,1235.7,216z M1233.3,264.9v-39h4.9v39H1233.3z"/>
		<path class="st0" d="M1253.5,264.9v-57.7h4.9v57.7H1253.5z"/>
		<path class="st0" d="M1276.7,246.3c0,2.4,0.3,4.5,1,6.4s1.5,3.5,2.6,4.8s2.5,2.3,4.2,3c1.6,0.7,3.5,1,5.5,1
			c4.4,0,8.5-1.5,12.5-4.6v4.8c-3.7,2.7-8.3,4-13.6,4c-2.6,0-5-0.5-7.1-1.4s-3.9-2.2-5.4-4c-1.5-1.7-2.7-3.9-3.5-6.4
			s-1.2-5.4-1.2-8.7c0-2.9,0.4-5.6,1.3-8.1s2.1-4.6,3.7-6.5c1.6-1.8,3.4-3.2,5.6-4.3s4.5-1.5,7.1-1.5c2.5,0,4.7,0.4,6.7,1.3
			s3.5,2.1,4.9,3.8c1.3,1.6,2.3,3.6,3,5.9c0.7,2.3,1,5,1,7.8v2.4h-28.3V246.3z M1299.8,242c-0.1-4.1-1-7.2-2.9-9.4s-4.4-3.4-7.7-3.4
			c-1.7,0-3.2,0.3-4.6,0.9c-1.4,0.6-2.6,1.4-3.7,2.5s-1.9,2.5-2.6,4c-0.7,1.6-1.2,3.4-1.5,5.4H1299.8z"/>
		<path class="st0" d="M1346.9,264.9v-54.6h14.9c2.3,0,4.3,0.3,6.1,0.9c1.8,0.6,3.4,1.5,4.6,2.6c1.3,1.1,2.3,2.4,3,4
			c0.7,1.5,1,3.3,1,5.1c0,1.6-0.2,3-0.6,4.4s-1.1,2.6-1.9,3.8c-0.8,1.1-1.8,2.1-3,2.9c-1.2,0.8-2.5,1.5-4,2v0.2
			c1.8,0.2,3.5,0.6,5,1.3s2.8,1.6,3.8,2.8s1.9,2.5,2.5,4s0.9,3.2,0.9,5c0,2.3-0.4,4.4-1.3,6.3c-0.8,1.9-2,3.6-3.5,5
			s-3.3,2.5-5.4,3.2s-4.4,1.1-6.9,1.1H1346.9z M1352,214.9v19.4h7.1c1.9,0,3.5-0.2,5-0.7s2.8-1.2,3.8-2.1s1.9-2,2.5-3.3
			s0.9-2.8,0.9-4.4c0-5.9-3.7-8.9-11-8.9H1352z M1352,238.9v21.4h9.4c4,0,7.1-0.9,9.3-2.8c2.2-1.9,3.3-4.6,3.3-8.1
			c0-7-4.8-10.5-14.3-10.5H1352z"/>
		<path class="st0" d="M1418.7,264.9v-6.6h-0.2c-2.6,5-6.7,7.5-12.3,7.5c-9.3,0-13.9-5.7-13.9-17v-22.9h4.9v22
			c0,4.7,0.8,8.1,2.5,10.4c1.7,2.2,4.2,3.4,7.6,3.4c1.7,0,3.2-0.3,4.6-1s2.6-1.6,3.6-2.7s1.8-2.6,2.3-4.2c0.6-1.7,0.8-3.5,0.8-5.5
			V226h4.9v39L1418.7,264.9L1418.7,264.9z"/>
		<path class="st0" d="M1436.6,257.9c0.7,0.6,1.5,1.1,2.4,1.6s1.8,0.9,2.7,1.2c0.9,0.3,1.8,0.6,2.8,0.7c0.9,0.2,1.8,0.2,2.6,0.2
			c5.8,0,8.7-2.2,8.7-6.5c0-1-0.2-1.8-0.6-2.6s-1-1.4-1.8-2s-1.7-1.1-2.7-1.7c-1.1-0.5-2.3-1-3.6-1.6c-1.8-0.7-3.4-1.5-4.6-2.2
			s-2.4-1.6-3.2-2.5c-0.8-0.9-1.5-1.9-1.9-3s-0.6-2.3-0.6-3.7c0-1.7,0.4-3.3,1.1-4.6s1.8-2.5,3-3.4c1.3-0.9,2.7-1.7,4.4-2.2
			c1.7-0.5,3.4-0.7,5.2-0.7c3.4,0,6.3,0.6,8.8,1.9v5.1c-2.9-1.9-6.1-2.8-9.4-2.8c-1.2,0-2.3,0.2-3.3,0.5s-1.9,0.7-2.6,1.3
			s-1.3,1.2-1.7,2c-0.4,0.8-0.6,1.6-0.6,2.6s0.2,1.8,0.5,2.5s0.8,1.4,1.4,2s1.5,1.1,2.5,1.7c1,0.5,2.3,1.1,3.8,1.7
			c1.9,0.8,3.5,1.5,4.9,2.3c1.4,0.7,2.5,1.6,3.4,2.4s1.5,1.9,2,2.9c0.4,1.1,0.6,2.3,0.6,3.8c0,1.8-0.4,3.3-1.1,4.7s-1.7,2.5-3,3.5
			c-1.3,0.9-2.8,1.7-4.5,2.1s-3.6,0.7-5.6,0.7c-3.9,0-7.2-0.8-9.9-2.5v-5.4H1436.6z"/>
		<path class="st0" d="M1475.4,216c-0.9,0-1.8-0.3-2.4-1c-0.7-0.7-1-1.5-1-2.5s0.3-1.8,1-2.5s1.5-1,2.4-1c0.5,0,0.9,0.1,1.4,0.2
			c0.4,0.2,0.8,0.4,1.1,0.7s0.6,0.7,0.8,1.1c0.2,0.4,0.3,0.9,0.3,1.4s-0.1,0.9-0.3,1.4c-0.2,0.4-0.4,0.8-0.8,1.1
			c-0.3,0.3-0.7,0.6-1.1,0.7C1476.3,215.9,1475.9,216,1475.4,216z M1473,264.9v-39h4.9v39H1473z"/>
		<path class="st0" d="M1519.5,264.9v-22.5c0-8.8-3.2-13.2-9.6-13.2c-1.7,0-3.3,0.3-4.7,1c-1.4,0.7-2.7,1.6-3.8,2.8
			c-1.1,1.2-1.9,2.6-2.5,4.2c-0.6,1.6-0.9,3.4-0.9,5.3v22.3h-4.9v-39h4.9v6.8h0.2c2.9-5.1,7.2-7.7,13.1-7.7c4.3,0,7.5,1.4,9.8,4.2
			c2.2,2.8,3.4,6.8,3.4,12v23.8H1519.5z"/>
		<path class="st0" d="M1542.1,246.3c0,2.4,0.3,4.5,1,6.4s1.5,3.5,2.6,4.8s2.5,2.3,4.2,3c1.6,0.7,3.5,1,5.5,1
			c4.4,0,8.5-1.5,12.5-4.6v4.8c-3.7,2.7-8.3,4-13.6,4c-2.6,0-5-0.5-7.1-1.4s-3.9-2.2-5.4-4c-1.5-1.7-2.7-3.9-3.5-6.4
			s-1.2-5.4-1.2-8.7c0-2.9,0.4-5.6,1.3-8.1s2.1-4.6,3.7-6.5c1.6-1.8,3.4-3.2,5.6-4.3s4.5-1.5,7.1-1.5c2.5,0,4.7,0.4,6.7,1.3
			s3.5,2.1,4.9,3.8c1.3,1.6,2.3,3.6,3,5.9c0.7,2.3,1,5,1,7.8v2.4h-28.3V246.3z M1565.2,242c-0.1-4.1-1-7.2-2.9-9.4s-4.4-3.4-7.7-3.4
			c-1.7,0-3.2,0.3-4.6,0.9c-1.4,0.6-2.6,1.4-3.7,2.5s-1.9,2.5-2.6,4c-0.7,1.6-1.2,3.4-1.5,5.4H1565.2z"/>
		<path class="st0" d="M1580.8,257.9c0.7,0.6,1.5,1.1,2.4,1.6s1.8,0.9,2.7,1.2c0.9,0.3,1.8,0.6,2.8,0.7c0.9,0.2,1.8,0.2,2.6,0.2
			c5.8,0,8.7-2.2,8.7-6.5c0-1-0.2-1.8-0.6-2.6s-1-1.4-1.8-2s-1.7-1.1-2.7-1.7c-1.1-0.5-2.3-1-3.6-1.6c-1.8-0.7-3.4-1.5-4.6-2.2
			s-2.4-1.6-3.2-2.5c-0.8-0.9-1.5-1.9-1.9-3s-0.6-2.3-0.6-3.7c0-1.7,0.4-3.3,1.1-4.6s1.8-2.5,3-3.4c1.3-0.9,2.7-1.7,4.4-2.2
			c1.7-0.5,3.4-0.7,5.2-0.7c3.4,0,6.3,0.6,8.8,1.9v5.1c-2.9-1.9-6.1-2.8-9.4-2.8c-1.2,0-2.3,0.2-3.3,0.5s-1.9,0.7-2.6,1.3
			s-1.3,1.2-1.7,2c-0.4,0.8-0.6,1.6-0.6,2.6s0.2,1.8,0.5,2.5s0.8,1.4,1.4,2s1.5,1.1,2.5,1.7c1,0.5,2.3,1.1,3.8,1.7
			c1.9,0.8,3.5,1.5,4.9,2.3c1.4,0.7,2.5,1.6,3.4,2.4s1.5,1.9,2,2.9c0.4,1.1,0.6,2.3,0.6,3.8c0,1.8-0.4,3.3-1.1,4.7s-1.7,2.5-3,3.5
			c-1.3,0.9-2.8,1.7-4.5,2.1s-3.6,0.7-5.6,0.7c-3.9,0-7.2-0.8-9.9-2.5v-5.4H1580.8z"/>
		<path class="st0" d="M1615.8,257.9c0.7,0.6,1.5,1.1,2.4,1.6s1.8,0.9,2.7,1.2c0.9,0.3,1.8,0.6,2.8,0.7c0.9,0.2,1.8,0.2,2.6,0.2
			c5.8,0,8.7-2.2,8.7-6.5c0-1-0.2-1.8-0.6-2.6s-1-1.4-1.8-2s-1.7-1.1-2.7-1.7c-1.1-0.5-2.3-1-3.6-1.6c-1.8-0.7-3.4-1.5-4.6-2.2
			s-2.4-1.6-3.2-2.5c-0.8-0.9-1.5-1.9-1.9-3s-0.6-2.3-0.6-3.7c0-1.7,0.4-3.3,1.1-4.6s1.8-2.5,3-3.4c1.3-0.9,2.7-1.7,4.4-2.2
			c1.7-0.5,3.4-0.7,5.2-0.7c3.4,0,6.3,0.6,8.8,1.9v5.1c-2.9-1.9-6.1-2.8-9.4-2.8c-1.2,0-2.3,0.2-3.3,0.5s-1.9,0.7-2.6,1.3
			s-1.3,1.2-1.7,2c-0.4,0.8-0.6,1.6-0.6,2.6s0.2,1.8,0.5,2.5s0.8,1.4,1.4,2s1.5,1.1,2.5,1.7c1,0.5,2.3,1.1,3.8,1.7
			c1.9,0.8,3.5,1.5,4.9,2.3c1.4,0.7,2.5,1.6,3.4,2.4s1.5,1.9,2,2.9c0.4,1.1,0.6,2.3,0.6,3.8c0,1.8-0.4,3.3-1.1,4.7s-1.7,2.5-3,3.5
			c-1.3,0.9-2.8,1.7-4.5,2.1s-3.6,0.7-5.6,0.7c-3.9,0-7.2-0.8-9.9-2.5v-5.4H1615.8z"/>
	</g>
	<g>
		<path class="st0" d="M431.3,174.3v-67.9h-81v67.9h-9.8V32.7h9.8v64.7h81V32.7h9.7v141.5h-9.7V174.3z"/>
		<path class="st0" d="M513.5,120.5v53.8h-9.7v-53.6l-43.3-87.9h11l33,68.2c1.2,2.4,2.7,5.9,4.4,10.5h0.4c0.9-2.4,2.5-5.9,4.8-10.3
			l34.5-68.4h10.6L513.5,120.5z"/>
		<path class="st0" d="M578.2,174.3V32.7h37.2c11.1,0,20,3,26.6,9s9.9,13.9,9.9,23.8c0,8.2-2.2,15.3-6.6,21.4
			c-4.4,6-10.5,10.3-18.3,12.8v0.4c9.8,0.9,17.5,4.4,23.2,10.5s8.5,13.8,8.5,23.2c0,11.9-3.8,21.6-11.5,29.2
			c-7.7,7.5-18,11.3-30.9,11.3H578.2z M587.9,41.7v54.8h19.7c10.3,0,18.5-2.6,24.7-7.9s9.3-12.4,9.3-21.4c0-17-10-25.5-30.1-25.5
			C611.5,41.7,587.9,41.7,587.9,41.7z M587.9,105.4v60h26.3c11.1,0,19.6-2.7,25.5-8s8.8-12.9,8.8-22.7c0-19.5-13.3-29.3-39.8-29.3
			C608.7,105.4,587.9,105.4,587.9,105.4z"/>
		<path class="st0" d="M756.5,174.3l-18.9-41.5c-3.9-8.6-7.8-14.3-11.6-17.2c-3.9-2.9-8.8-4.4-14.6-4.4h-17.6v63.1H684V32.7h39.3
			c12.5,0,22.3,3.4,29.5,10.1c7.1,6.7,10.7,15.6,10.7,26.7c0,10.2-2.9,18.7-8.8,25.6c-5.9,6.8-14,11.3-24.6,13.2v0.4
			c5.6,2.2,11.1,9,16.4,20.4l21,45.1h-11V174.3z M693.9,41.7v60.6h24.4c10.8,0,19.4-2.8,25.7-8.5s9.5-13.4,9.5-23.3
			c0-9-2.9-16.1-8.6-21.2c-5.7-5.1-13.9-7.6-24.6-7.6H693.9z"/>
		<path class="st0" d="M791.2,174.3V32.7h9.8v141.5h-9.8V174.3z"/>
		<path class="st0" d="M833.6,174.3V32.7H869c23.5,0,41.4,5.9,53.6,17.6C934.9,62,941,79.1,941,101.5c0,21.6-6.6,39.1-19.7,52.6
			c-13.1,13.5-31.2,20.2-54.3,20.2H833.6z M843.4,41.7v123.7h22.2c21,0,37.1-5.4,48.4-16.3c11.3-10.9,16.9-26.6,16.9-47.1
			c0-40.1-21.1-60.2-63.3-60.2L843.4,41.7L843.4,41.7z"/>
		<path class="st1" d="M1055.6,58.7h-49.9v34.7h45.9v25.9h-45.9v55h-31.9V32.7h81.8V58.7z"/>
		<path class="st1" d="M1142.4,176.8c-20.3,0-36.8-6.6-49.5-19.8c-12.8-13.2-19.1-30.4-19.1-51.6c0-22.4,6.5-40.5,19.4-54.3
			c13-13.8,30.1-20.7,51.5-20.7c20.2,0,36.5,6.6,49,19.8s18.7,30.7,18.7,52.3c0,22.2-6.5,40.2-19.4,53.8
			C1180.1,169.9,1163.2,176.8,1142.4,176.8z M1143.8,57.8c-11.2,0-20.1,4.2-26.6,12.6c-6.6,8.4-9.9,19.5-9.9,33.3
			c0,14,3.3,25.1,9.9,33.3s15.2,12.2,25.9,12.2c11,0,19.7-4,26.2-11.9c6.4-7.9,9.7-18.9,9.7-33c0-14.7-3.1-26.1-9.4-34.2
			C1163.2,61.9,1154.7,57.8,1143.8,57.8z"/>
		<path class="st1" d="M1351.4,174.3h-36.6l-22-36.4c-1.6-2.8-3.2-5.2-4.7-7.4s-3-4-4.6-5.6c-1.5-1.5-3.2-2.7-4.8-3.6
			c-1.7-0.8-3.5-1.2-5.5-1.2h-8.6v54.2h-31.9V32.7h50.5c34.3,0,51.5,12.8,51.5,38.5c0,4.9-0.8,9.5-2.3,13.7s-3.7,7.9-6.4,11.3
			c-2.8,3.4-6.1,6.3-10,8.7c-3.9,2.4-8.3,4.3-13.1,5.7v0.4c2.1,0.7,4.1,1.7,6.1,3.2s3.9,3.2,5.7,5.2c1.8,2,3.6,4.1,5.3,6.4
			s3.2,4.5,4.6,6.7L1351.4,174.3z M1264.5,56.6V96h13.8c6.8,0,12.3-2,16.5-5.9c4.2-4,6.3-9,6.3-14.9c0-12.4-7.4-18.6-22.2-18.6
			H1264.5z"/>
		<path class="st1" d="M1524.2,174.3h-31.5V89.6c0-9.1,0.4-19.2,1.2-30.3h-0.8c-1.6,8.7-3.1,14.9-4.4,18.8l-33.2,96.2h-26.1
			L1395.6,79c-0.9-2.6-2.4-9.1-4.4-19.7h-0.9c0.9,14,1.3,26.2,1.3,36.7v78.3h-28.7V32.7h46.7l28.9,83.9c2.3,6.7,4,13.5,5,20.2h0.6
			c1.8-7.8,3.7-14.6,5.6-20.4l28.9-83.7h45.5L1524.2,174.3L1524.2,174.3z"/>
		<path class="st1" d="M1547.6,168.9v-31.6c5.7,4.8,11.9,8.4,18.7,10.8c6.7,2.4,13.5,3.6,20.3,3.6c4,0,7.5-0.4,10.5-1.1
			c3-0.7,5.5-1.7,7.5-3s3.5-2.8,4.5-4.5s1.5-3.6,1.5-5.7c0-2.8-0.8-5.2-2.4-7.4s-3.7-4.2-6.5-6c-2.7-1.8-6-3.6-9.7-5.3
			c-3.8-1.7-7.8-3.5-12.1-5.2c-11.1-4.6-19.3-10.2-24.7-16.9c-5.4-6.6-8.1-14.7-8.1-24.1c0-7.4,1.5-13.7,4.4-19
			c3-5.3,7-9.7,12.1-13.1c5.1-3.4,11-5.9,17.7-7.6c6.7-1.6,13.8-2.4,21.3-2.4c7.4,0,13.9,0.4,19.6,1.3s10.9,2.3,15.7,4.1v29.5
			c-2.4-1.6-5-3.1-7.7-4.3c-2.8-1.2-5.7-2.3-8.6-3.1c-3-0.8-5.9-1.4-8.8-1.8c-2.9-0.4-5.7-0.6-8.3-0.6c-3.6,0-6.9,0.3-9.9,1
			s-5.5,1.7-7.5,2.9c-2,1.3-3.6,2.7-4.7,4.5c-1.1,1.7-1.7,3.7-1.7,5.9c0,2.4,0.6,4.5,1.9,6.4c1.2,1.9,3,3.7,5.3,5.3
			c2.3,1.7,5.1,3.3,8.4,4.9s7,3.3,11.2,5c5.7,2.4,10.7,4.9,15.2,7.6s8.4,5.7,11.6,9c3.2,3.4,5.7,7.2,7.4,11.5
			c1.7,4.3,2.6,9.3,2.6,15.1c0,7.9-1.5,14.5-4.5,19.9s-7.1,9.7-12.2,13s-11.1,5.7-17.9,7.2c-6.8,1.4-14,2.2-21.6,2.2
			c-7.8,0-15.2-0.7-22.2-2S1552.7,171.5,1547.6,168.9z"/>
		<path class="st1" d="M1678.9,77.2c-7.3,0-13.5-2.6-18.7-7.7c-5.1-5.1-7.7-11.3-7.7-18.5c0-7.3,2.6-13.6,7.7-18.7
			c5.2-5.1,11.3-7.7,18.6-7.7c7.2,0,13.5,2.6,18.6,7.7s7.8,11.3,7.8,18.5c0,7.3-2.6,13.5-7.7,18.7
			C1692.4,74.6,1686.2,77.2,1678.9,77.2z M1678.7,27.6c-6.3,0-11.7,2.3-16.2,6.9s-6.8,10.1-6.8,16.5s2.2,11.8,6.7,16.4
			s9.9,6.8,16.3,6.8s11.9-2.3,16.5-6.8c4.6-4.6,6.9-10,6.9-16.4s-2.3-11.9-6.9-16.5S1685.1,27.6,1678.7,27.6z M1687.2,67.2l-4-8.6
			c-1.2-2.5-2.3-4.2-3.4-5.1c-1.1-0.9-2.3-1.3-3.7-1.3h-3.4v15h-3.6V33.4h9.3c3.7,0,6.6,0.8,8.6,2.4s3,3.8,3,6.5
			c0,5.2-3,8.3-8.9,9.4v0.1c2,0.4,3.9,2.5,5.6,6.1l4.5,9.3C1691.2,67.2,1687.2,67.2,1687.2,67.2z M1672.7,36.1v13.3h6.1
			c2.3,0,4.1-0.6,5.5-1.8s2.1-2.8,2.1-4.8c0-4.5-2.8-6.7-8.4-6.7H1672.7z"/>
	</g>
	<path class="st1" d="M150.2,19.2c-71.8,0-130,58.2-130,130s58.2,130,130,130s130-58.2,130-130S222,19.2,150.2,19.2z M97,185H73
		c-3.3,0-6-2.7-6-6V72c0-3.3,2.7-6,6-6h107c3.3,0,6,2.7,6,6v24c0,3.3-2.7,6-6,6s-6-2.7-6-6V78H79v95h18c3.3,0,6,2.7,6,6
		S100.3,185,97,185z M109.3,159.1l-18.2-18.2c-2.3-2.3-2.3-6.1,0-8.5c2.3-2.3,6.1-2.3,8.5,0l14,14l41.8-41.8c2.3-2.3,6.1-2.3,8.5,0
		c2.3,2.3,2.3,6.1,0,8.5l-46,46c-1.2,1.2-2.7,1.8-4.2,1.8S110.5,160.3,109.3,159.1z M126.8,225.4c0,0-1.6,2.9-4.4,3.6
		c-2.3,0.5-4.3,0-5.6-1c0,0-0.3-0.2-0.8-0.8c-1-1.3-1.7-3.4-1.4-5.7c0.4-2.9,3.1-4.8,3.1-4.8l2.9-3.5l4.4,4.2l0,0l0.3,0.3l0.3,0.3
		l0,0l4.4,4.3L126.8,225.4z M139,218.7l-1.5,0.3l-7-6.5l0,0l-8-7.6l0.2-1.5c0,0-0.7-4.2,3.1-8.9l87.9-87.9l7.3,6.9l0,0l8.5,7.9
		L147.7,215C143.3,219.2,139,218.7,139,218.7z M226,234h-70c-3.3,0-6-2.7-6-6s2.7-6,6-6h70c3.3,0,6,2.7,6,6S229.3,234,226,234z
		 M234.6,116.1l-7.5-7.2l-0.6-0.5l-7.6-7.1c0,0,8.6-13.9,18.7-4.3l0,0l0.1,0.1l0.1,0.1l0,0C248,106.8,234.6,116.1,234.6,116.1z"/>
</g>
<g id="Hilfslinien" class="st2">
	<ellipse class="st3" cx="150.2" cy="149.2" rx="115" ry="115"/>
	<line class="st4" x1="48.2" y1="251.2" x2="252.2" y2="47.1"/>
	<line class="st4" x1="25.2" y1="251.2" x2="229.2" y2="47.1"/>
	<line class="st4" x1="252.2" y1="251.2" x2="48.2" y2="47.1"/>
</g>
</svg>
