<svg id="Logo" xmlns="http://www.w3.org/2000/svg" viewBox="0 0 1685.05 260"><defs><style>.cls-1{fill:#0072ce;}</style></defs><path d="M388.82,264.9V227.2q0-2.89.45-9.34h-.15c-.36,1.15-.68,2.14-1,3a21.67,21.67,0,0,1-.82,2l-19,42h-2.17L347,223.16a36.12,36.12,0,0,1-1.72-5.37h-.15c.1,1.17.17,2.5.21,4s.06,3.16.06,5V264.9h-5V210.29h6L365,251.34c.38.87.76,1.75,1.12,2.65a30.1,30.1,0,0,1,1,2.87h.23c.36-1,.68-1.94,1-2.78s.66-1.73,1.09-2.7l18.7-41.09h5.67V264.9Z" transform="translate(-20.17 -19.17)"/><path d="M427,265.81a20,20,0,0,1-7.78-1.44,16.71,16.71,0,0,1-5.89-4.1,18,18,0,0,1-3.73-6.34,24.68,24.68,0,0,1-1.3-8.19,25.74,25.74,0,0,1,1.38-8.72,18.3,18.3,0,0,1,3.9-6.53,16.73,16.73,0,0,1,6.11-4.09,21.67,21.67,0,0,1,8-1.41,19.86,19.86,0,0,1,7.62,1.39,15.42,15.42,0,0,1,5.75,4,18,18,0,0,1,3.62,6.39,27.3,27.3,0,0,1,1.25,8.57,24.91,24.91,0,0,1-1.31,8.32,18.84,18.84,0,0,1-3.75,6.46,16.73,16.73,0,0,1-5.94,4.19A20.16,20.16,0,0,1,427,265.81Zm.39-36.6a14.51,14.51,0,0,0-5.79,1.11,12.15,12.15,0,0,0-4.44,3.22,14.54,14.54,0,0,0-2.84,5.18,22.56,22.56,0,0,0-1,6.95,20.59,20.59,0,0,0,1,6.59,14.92,14.92,0,0,0,2.8,5,12.07,12.07,0,0,0,4.4,3.22,14.41,14.41,0,0,0,5.79,1.13,14.58,14.58,0,0,0,5.79-1.09,11.4,11.4,0,0,0,4.26-3.16,13.91,13.91,0,0,0,2.65-5.09,23.89,23.89,0,0,0,.9-6.85c0-5.26-1.17-9.27-3.51-12.06S431.74,229.21,427.4,229.21Z" transform="translate(-20.17 -19.17)"/><path d="M464.3,258.62v6.28h-4.87V207.16h4.87v26.21h.16a15.42,15.42,0,0,1,5.8-6.23,17,17,0,0,1,14.9-.8,13.66,13.66,0,0,1,5,3.86,17.93,17.93,0,0,1,3.13,6.06,27,27,0,0,1,1.08,7.88,29.42,29.42,0,0,1-1.24,8.82,20.5,20.5,0,0,1-3.52,6.84,15.88,15.88,0,0,1-5.54,4.43,16.38,16.38,0,0,1-7.29,1.58,13.2,13.2,0,0,1-12.3-7.19Zm0-9.94a13.82,13.82,0,0,0,.9,5,12.9,12.9,0,0,0,2.49,4.12,11.73,11.73,0,0,0,3.87,2.8,12.07,12.07,0,0,0,5,1,11.28,11.28,0,0,0,5.29-1.24,11.65,11.65,0,0,0,4-3.53,17.16,17.16,0,0,0,2.55-5.52,27,27,0,0,0,.9-7.23,21.21,21.21,0,0,0-.84-6.19,14.1,14.1,0,0,0-2.38-4.71,10.45,10.45,0,0,0-3.74-3,11.45,11.45,0,0,0-4.89-1,12.91,12.91,0,0,0-5.48,1.13,12.49,12.49,0,0,0-4.16,3.06,13.71,13.71,0,0,0-2.62,4.56,16.56,16.56,0,0,0-.92,5.54Z" transform="translate(-20.17 -19.17)"/><path d="M510.11,216a3.41,3.41,0,0,1-2.44-1,3.36,3.36,0,0,1-1-2.52,3.22,3.22,0,0,1,1-2.45,3.44,3.44,0,0,1,2.44-1,3.92,3.92,0,0,1,1.37.25,3.39,3.39,0,0,1,1.13.71,3.51,3.51,0,0,1,.76,1.08,3.32,3.32,0,0,1,.28,1.39,3.67,3.67,0,0,1-.26,1.37,3.26,3.26,0,0,1-.76,1.13,3.81,3.81,0,0,1-1.13.74A3.48,3.48,0,0,1,510.11,216Zm-2.4,48.86v-39h4.88v39Z" transform="translate(-20.17 -19.17)"/><path d="M528.39,264.9V207.16h4.88V264.9Z" transform="translate(-20.17 -19.17)"/><path d="M551.93,246.28a21.62,21.62,0,0,0,1,6.43,13.5,13.5,0,0,0,2.63,4.84,11.28,11.28,0,0,0,4.17,3,14,14,0,0,0,5.54,1.05A19.84,19.84,0,0,0,577.67,257v4.8a22.74,22.74,0,0,1-13.56,4,17.83,17.83,0,0,1-7.12-1.37,14.65,14.65,0,0,1-5.44-4,18,18,0,0,1-3.47-6.41,28.59,28.59,0,0,1-1.22-8.69,24.16,24.16,0,0,1,1.33-8.11,20,20,0,0,1,3.7-6.46,17.06,17.06,0,0,1,5.6-4.26,16.23,16.23,0,0,1,7.08-1.54,15.94,15.94,0,0,1,6.67,1.31,13.17,13.17,0,0,1,4.85,3.75,16.94,16.94,0,0,1,3,5.94,27.69,27.69,0,0,1,1,7.85v2.44ZM575.08,242q-.11-6.09-2.89-9.44a9.49,9.49,0,0,0-7.73-3.36,12,12,0,0,0-4.59.88,11,11,0,0,0-3.72,2.53,13.86,13.86,0,0,0-2.64,4A20.26,20.26,0,0,0,552,242Z" transform="translate(-20.17 -19.17)"/><path d="M622.91,264.9V210.29h14.93a19.19,19.19,0,0,1,6.12.91,13.8,13.8,0,0,1,4.64,2.57,11.13,11.13,0,0,1,2.95,4,12.4,12.4,0,0,1,1,5.1,14.36,14.36,0,0,1-.65,4.42,13.15,13.15,0,0,1-1.86,3.75,12.66,12.66,0,0,1-3,2.94,15,15,0,0,1-4,2v.15a15,15,0,0,1,5,1.33,12.63,12.63,0,0,1,3.85,2.78,12.32,12.32,0,0,1,2.47,4,14,14,0,0,1,.88,5.05,15.64,15.64,0,0,1-1.26,6.34,14.48,14.48,0,0,1-3.52,5,16.08,16.08,0,0,1-5.39,3.22,20,20,0,0,1-6.9,1.14Zm5.07-50v19.39h7.08a16.12,16.12,0,0,0,5-.73,11.07,11.07,0,0,0,3.85-2.09,9.23,9.23,0,0,0,2.45-3.31,10.8,10.8,0,0,0,.86-4.38q0-8.88-11-8.88Zm0,24v21.4h9.4q6.06,0,9.32-2.83c2.17-1.9,3.25-4.58,3.25-8.06q0-10.52-14.28-10.51Z" transform="translate(-20.17 -19.17)"/><path d="M695.08,264.9v-6.63h-.15q-4,7.55-12.3,7.54-13.9,0-13.9-17V225.9h4.87v22q0,7,2.5,10.36c1.66,2.24,4.21,3.36,7.63,3.36a10.64,10.64,0,0,0,4.59-1,10.3,10.3,0,0,0,3.58-2.74,12.71,12.71,0,0,0,2.35-4.24,17.28,17.28,0,0,0,.83-5.49V225.9H700v39Z" transform="translate(-20.17 -19.17)"/><path d="M713.42,257.89a15,15,0,0,0,2.4,1.56,20.5,20.5,0,0,0,2.67,1.19,17.07,17.07,0,0,0,2.76.74,15.67,15.67,0,0,0,2.65.25q8.69,0,8.68-6.52a5.14,5.14,0,0,0-.61-2.57,6.86,6.86,0,0,0-1.75-2,15.28,15.28,0,0,0-2.74-1.66c-1.07-.5-2.28-1-3.62-1.59a37.61,37.61,0,0,1-4.65-2.25,14.23,14.23,0,0,1-3.2-2.5,8.82,8.82,0,0,1-1.86-3,10.27,10.27,0,0,1-.61-3.67,9.31,9.31,0,0,1,1.12-4.61,10.68,10.68,0,0,1,3-3.43,13.89,13.89,0,0,1,4.4-2.15,18.07,18.07,0,0,1,5.23-.74,19.35,19.35,0,0,1,8.84,1.9V232a17.13,17.13,0,0,0-9.45-2.82,11.6,11.6,0,0,0-3.33.46,7.87,7.87,0,0,0-2.57,1.3,5.91,5.91,0,0,0-1.66,2,5.62,5.62,0,0,0-.59,2.57,6.56,6.56,0,0,0,.46,2.53,5.56,5.56,0,0,0,1.43,2,12.28,12.28,0,0,0,2.51,1.68q1.54.79,3.75,1.71a46.71,46.71,0,0,1,4.88,2.27,15.39,15.39,0,0,1,3.39,2.43,8.58,8.58,0,0,1,2,2.94,10.09,10.09,0,0,1,.65,3.75,9.8,9.8,0,0,1-1.09,4.68,10.11,10.11,0,0,1-3,3.47,13.74,13.74,0,0,1-4.51,2.13,21,21,0,0,1-5.64.72,18.7,18.7,0,0,1-9.94-2.47Z" transform="translate(-20.17 -19.17)"/><path d="M752.56,216a3.41,3.41,0,0,1-2.44-1,3.37,3.37,0,0,1-1-2.52,3.23,3.23,0,0,1,1-2.45,3.44,3.44,0,0,1,2.44-1,3.92,3.92,0,0,1,1.37.25,3.25,3.25,0,0,1,1.12.71,3.39,3.39,0,0,1,1.05,2.47,3.49,3.49,0,0,1-.27,1.37,3.13,3.13,0,0,1-.76,1.13,3.64,3.64,0,0,1-1.12.74A3.48,3.48,0,0,1,752.56,216Zm-2.4,48.86v-39H755v39Z" transform="translate(-20.17 -19.17)"/><path d="M797.11,264.9V242.43q0-13.22-9.6-13.22a11.11,11.11,0,0,0-4.72,1A11.39,11.39,0,0,0,779,233a13.15,13.15,0,0,0-2.48,4.25,15.34,15.34,0,0,0-.89,5.31V264.9h-4.88v-39h4.88v6.78h.15A14.08,14.08,0,0,1,788.88,225q6.4,0,9.75,4.15c2.24,2.77,3.35,6.76,3.35,12V264.9Z" transform="translate(-20.17 -19.17)"/><path d="M820,246.28a22.28,22.28,0,0,0,1,6.43,13.66,13.66,0,0,0,2.63,4.84,11.36,11.36,0,0,0,4.17,3,14,14,0,0,0,5.54,1.05A19.85,19.85,0,0,0,845.78,257v4.8a22.74,22.74,0,0,1-13.56,4,17.76,17.76,0,0,1-7.12-1.37,14.69,14.69,0,0,1-5.45-4,18,18,0,0,1-3.46-6.41,28.28,28.28,0,0,1-1.22-8.69,23.91,23.91,0,0,1,1.33-8.11,20.15,20.15,0,0,1,3.69-6.46,17.16,17.16,0,0,1,5.6-4.26,16.24,16.24,0,0,1,7.09-1.54,15.9,15.9,0,0,1,6.66,1.31,13.2,13.2,0,0,1,4.86,3.75,17.28,17.28,0,0,1,3,5.94,28.05,28.05,0,0,1,1,7.85v2.44ZM843.19,242q-.12-6.09-2.9-9.44a9.48,9.48,0,0,0-7.73-3.36,12,12,0,0,0-4.59.88,10.94,10.94,0,0,0-3.71,2.53,13.68,13.68,0,0,0-2.65,4,20.25,20.25,0,0,0-1.46,5.35Z" transform="translate(-20.17 -19.17)"/><path d="M859.18,257.89a14.14,14.14,0,0,0,2.4,1.56,20.38,20.38,0,0,0,2.66,1.19,17.64,17.64,0,0,0,2.76.74,15.67,15.67,0,0,0,2.65.25q8.69,0,8.68-6.52a5.25,5.25,0,0,0-.6-2.57,6.76,6.76,0,0,0-1.76-2,14.94,14.94,0,0,0-2.74-1.66c-1.06-.5-2.27-1-3.62-1.59a36.74,36.74,0,0,1-4.64-2.25,14,14,0,0,1-3.2-2.5,9,9,0,0,1-1.87-3,10.5,10.5,0,0,1-.61-3.67,9.32,9.32,0,0,1,1.13-4.61,10.54,10.54,0,0,1,3-3.43,14,14,0,0,1,4.4-2.15,18.09,18.09,0,0,1,5.24-.74,19.38,19.38,0,0,1,8.84,1.9V232a17.13,17.13,0,0,0-9.45-2.82,11.55,11.55,0,0,0-3.33.46,7.77,7.77,0,0,0-2.57,1.3,5.8,5.8,0,0,0-1.66,2,5.62,5.62,0,0,0-.59,2.57,6.38,6.38,0,0,0,.46,2.53,5.53,5.53,0,0,0,1.42,2,12.1,12.1,0,0,0,2.52,1.68q1.54.79,3.75,1.71a46.47,46.47,0,0,1,4.87,2.27,14.93,14.93,0,0,1,3.39,2.43,8.58,8.58,0,0,1,2,2.94,10.88,10.88,0,0,1-.43,8.43,10.22,10.22,0,0,1-3,3.47,13.79,13.79,0,0,1-4.52,2.13,20.91,20.91,0,0,1-5.63.72,18.67,18.67,0,0,1-9.94-2.47Z" transform="translate(-20.17 -19.17)"/><path d="M894.58,257.89a14.14,14.14,0,0,0,2.4,1.56,20.38,20.38,0,0,0,2.66,1.19,17.46,17.46,0,0,0,2.77.74,15.46,15.46,0,0,0,2.64.25q8.69,0,8.69-6.52a5.25,5.25,0,0,0-.61-2.57,6.76,6.76,0,0,0-1.76-2,14.94,14.94,0,0,0-2.74-1.66c-1.06-.5-2.27-1-3.62-1.59a36.74,36.74,0,0,1-4.64-2.25,14,14,0,0,1-3.2-2.5,9,9,0,0,1-1.87-3,10.5,10.5,0,0,1-.61-3.67,9.32,9.32,0,0,1,1.13-4.61,10.54,10.54,0,0,1,3-3.43,14,14,0,0,1,4.4-2.15,18.13,18.13,0,0,1,5.24-.74,19.38,19.38,0,0,1,8.84,1.9V232a17.13,17.13,0,0,0-9.45-2.82,11.55,11.55,0,0,0-3.33.46A7.77,7.77,0,0,0,902,231a5.8,5.8,0,0,0-1.66,2,5.62,5.62,0,0,0-.59,2.57,6.38,6.38,0,0,0,.46,2.53,5.53,5.53,0,0,0,1.42,2,12.1,12.1,0,0,0,2.52,1.68q1.54.79,3.75,1.71a47.69,47.69,0,0,1,4.88,2.27,15.08,15.08,0,0,1,3.38,2.43,8.75,8.75,0,0,1,2,2.94,10.09,10.09,0,0,1,.64,3.75,9.91,9.91,0,0,1-1.08,4.68,10.22,10.22,0,0,1-3,3.47,13.83,13.83,0,0,1-4.51,2.13,21,21,0,0,1-5.64.72,18.67,18.67,0,0,1-9.94-2.47Z" transform="translate(-20.17 -19.17)"/><path d="M966.78,214.93V235.5h20v4.61h-20V264.9h-5.06V210.29h26.62v4.64Z" transform="translate(-20.17 -19.17)"/><path d="M1017.23,265.81a20,20,0,0,1-7.79-1.44,16.58,16.58,0,0,1-5.88-4.1,18,18,0,0,1-3.74-6.34,24.69,24.69,0,0,1-1.29-8.19A26,26,0,0,1,999.9,237a18.3,18.3,0,0,1,3.9-6.53,16.69,16.69,0,0,1,6.12-4.09,21.61,21.61,0,0,1,8-1.41,19.86,19.86,0,0,1,7.62,1.39,15.34,15.34,0,0,1,5.75,4,17.83,17.83,0,0,1,3.62,6.39,27,27,0,0,1,1.26,8.57,24.91,24.91,0,0,1-1.32,8.32,18.53,18.53,0,0,1-3.75,6.46,16.55,16.55,0,0,1-5.94,4.19A20.15,20.15,0,0,1,1017.23,265.81Zm.38-36.6a14.58,14.58,0,0,0-5.79,1.11,12.15,12.15,0,0,0-4.44,3.22,14.52,14.52,0,0,0-2.83,5.18,22.56,22.56,0,0,0-1,6.95,20.59,20.59,0,0,0,1,6.59,14.75,14.75,0,0,0,2.8,5,12,12,0,0,0,4.39,3.22,15.66,15.66,0,0,0,11.58,0,11.44,11.44,0,0,0,4.27-3.16,13.75,13.75,0,0,0,2.64-5.09,23.89,23.89,0,0,0,.9-6.85c0-5.26-1.17-9.27-3.5-12.06S1022,229.21,1017.61,229.21Z" transform="translate(-20.17 -19.17)"/><path d="M1069,230.89a7.28,7.28,0,0,0-4.42-1.26,7.53,7.53,0,0,0-3.43.75,8.42,8.42,0,0,0-2.6,2,11.73,11.73,0,0,0-1.91,2.91,20.28,20.28,0,0,0-1.26,3.45,26.37,26.37,0,0,0-.68,3.61,30.54,30.54,0,0,0-.21,3.47V264.9h-4.84v-39h4.84v8.34h.15a17.94,17.94,0,0,1,1.73-3.83,11.92,11.92,0,0,1,2.42-2.85,9.93,9.93,0,0,1,3-1.77,9.54,9.54,0,0,1,3.41-.61,13.32,13.32,0,0,1,2.11.15,7.53,7.53,0,0,1,1.7.46Z" transform="translate(-20.17 -19.17)"/><path d="M1129.16,264.9V242a28.39,28.39,0,0,0-.53-5.92,10.35,10.35,0,0,0-1.66-3.94,6.43,6.43,0,0,0-2.85-2.21,11.22,11.22,0,0,0-4.14-.69,8.51,8.51,0,0,0-4,1,10.91,10.91,0,0,0-3.34,2.78,13.43,13.43,0,0,0-2.24,4.17,15.85,15.85,0,0,0-.82,5.18V264.9h-4.88V241.48q0-12.27-9.4-12.27a8.58,8.58,0,0,0-4,1,9.93,9.93,0,0,0-3.26,2.72,13,13,0,0,0-2.17,4.21,17.79,17.79,0,0,0-.78,5.42V264.9h-4.87v-39H1085v6.32h.15q4.13-7.23,12-7.23a11.78,11.78,0,0,1,3.88.63,11,11,0,0,1,3.28,1.75,11.36,11.36,0,0,1,2.49,2.68,12.21,12.21,0,0,1,1.59,3.43,15.56,15.56,0,0,1,5.35-6.32,13.17,13.17,0,0,1,7.44-2.17q12.84,0,12.84,15.84V264.9Z" transform="translate(-20.17 -19.17)"/><path d="M1146.8,257.89a15,15,0,0,0,2.4,1.56,20.5,20.5,0,0,0,2.67,1.19,17.07,17.07,0,0,0,2.76.74,15.67,15.67,0,0,0,2.65.25q8.68,0,8.68-6.52a5.14,5.14,0,0,0-.61-2.57,6.86,6.86,0,0,0-1.75-2,15.28,15.28,0,0,0-2.74-1.66c-1.07-.5-2.28-1-3.62-1.59a37.61,37.61,0,0,1-4.65-2.25,14.23,14.23,0,0,1-3.2-2.5,8.82,8.82,0,0,1-1.86-3,10.27,10.27,0,0,1-.61-3.67,9.31,9.31,0,0,1,1.12-4.61,10.68,10.68,0,0,1,3-3.43,13.89,13.89,0,0,1,4.4-2.15,18.07,18.07,0,0,1,5.23-.74,19.35,19.35,0,0,1,8.84,1.9V232a17.13,17.13,0,0,0-9.45-2.82,11.6,11.6,0,0,0-3.33.46,7.87,7.87,0,0,0-2.57,1.3,5.91,5.91,0,0,0-1.66,2,5.62,5.62,0,0,0-.59,2.57,6.56,6.56,0,0,0,.46,2.53,5.56,5.56,0,0,0,1.43,2,12.28,12.28,0,0,0,2.51,1.68q1.54.79,3.75,1.71a46.71,46.71,0,0,1,4.88,2.27,15.39,15.39,0,0,1,3.39,2.43,8.58,8.58,0,0,1,2,2.94,10.09,10.09,0,0,1,.65,3.75,9.8,9.8,0,0,1-1.09,4.68,10.11,10.11,0,0,1-3,3.47,13.74,13.74,0,0,1-4.51,2.13,21,21,0,0,1-5.64.72,18.7,18.7,0,0,1-9.94-2.47Z" transform="translate(-20.17 -19.17)"/><path d="M1253.63,264.9l-6.63-6.59a24.53,24.53,0,0,1-18,7.54,22.12,22.12,0,0,1-7.14-1.08,15.82,15.82,0,0,1-5.41-3,13.17,13.17,0,0,1-3.41-4.66,14.61,14.61,0,0,1-1.18-5.91q0-10.05,12.53-16.07-6-7.4-6-13a12.32,12.32,0,0,1,1-5.07,12.18,12.18,0,0,1,2.89-4,13.81,13.81,0,0,1,4.4-2.69,15.64,15.64,0,0,1,5.58-1,14.76,14.76,0,0,1,5.11.84,11.46,11.46,0,0,1,3.88,2.32,10.3,10.3,0,0,1,2.48,3.54,11.46,11.46,0,0,1,.87,4.5,15.37,15.37,0,0,1-.68,4.7,12.17,12.17,0,0,1-2.21,4,18.39,18.39,0,0,1-3.94,3.49,45,45,0,0,1-5.89,3.27c2.29,2.42,4.72,4.9,7.29,7.47s5.33,5.27,8.25,8.11a23.47,23.47,0,0,0,1.89-3.37,28.35,28.35,0,0,0,1.46-3.87,29.84,29.84,0,0,0,1-4.13,33.47,33.47,0,0,0,.42-4.17h4.69a31.71,31.71,0,0,1-6.44,18.74l4.61,4.51c1.7,1.67,3.62,3.55,5.75,5.66Zm-9.56-9.63c-3-3-5.91-5.86-8.67-8.67s-5.44-5.59-8.05-8.36a23.14,23.14,0,0,0-8,5.62,10.65,10.65,0,0,0-2.51,7,10.49,10.49,0,0,0,.89,4.38,9.74,9.74,0,0,0,2.5,3.37,11.58,11.58,0,0,0,3.86,2.17,15.31,15.31,0,0,0,5,.78A20.56,20.56,0,0,0,1244.07,255.27ZM1228.91,233a36.12,36.12,0,0,0,4.93-2.68,16.82,16.82,0,0,0,3.33-2.8,9.71,9.71,0,0,0,1.91-3.05,9.53,9.53,0,0,0,.61-3.39,7.84,7.84,0,0,0-.59-3.06,7.23,7.23,0,0,0-4-4,7.85,7.85,0,0,0-3-.56,9.9,9.9,0,0,0-3.66.65,8,8,0,0,0-2.78,1.81,8.27,8.27,0,0,0-1.77,2.76,9.39,9.39,0,0,0-.63,3.47Q1223.27,226.66,1228.91,233Z" transform="translate(-20.17 -19.17)"/><path d="M1348.15,264.9h-5.29l-11.7-40.48a28.35,28.35,0,0,1-.66-2.78,17.11,17.11,0,0,1-.29-2.59h-.15a23.77,23.77,0,0,1-1.11,5.29l-12.11,40.56h-5.29l-16.11-54.61h5.64l12,42.84c.28.94.5,1.84.67,2.69s.3,1.67.4,2.45h.15a36.13,36.13,0,0,1,1.26-5.14l12.79-42.84h4l12,43c.23.87.43,1.71.61,2.54s.32,1.63.42,2.42h.15a13.3,13.3,0,0,1,.3-1.72c.16-.63.33-1.34.54-2.13l12-44.1h5.52Z" transform="translate(-20.17 -19.17)"/><path d="M1388.62,265.81a20.07,20.07,0,0,1-7.79-1.44,16.58,16.58,0,0,1-5.88-4.1,17.8,17.8,0,0,1-3.73-6.34,24.43,24.43,0,0,1-1.3-8.19,26,26,0,0,1,1.37-8.72,18.47,18.47,0,0,1,3.91-6.53,16.57,16.57,0,0,1,6.11-4.09,21.67,21.67,0,0,1,8-1.41,19.81,19.81,0,0,1,7.61,1.39,15.34,15.34,0,0,1,5.75,4,17.68,17.68,0,0,1,3.62,6.39,27,27,0,0,1,1.26,8.57,25.17,25.17,0,0,1-1.31,8.32,18.7,18.7,0,0,1-3.76,6.46,16.55,16.55,0,0,1-5.94,4.19A20.08,20.08,0,0,1,1388.62,265.81Zm.38-36.6a14.58,14.58,0,0,0-5.79,1.11,12.2,12.2,0,0,0-4.43,3.22,14.39,14.39,0,0,0-2.84,5.18,22.56,22.56,0,0,0-1,6.95,20.59,20.59,0,0,0,1,6.59,14.75,14.75,0,0,0,2.8,5,12,12,0,0,0,4.4,3.22,14.34,14.34,0,0,0,5.79,1.13,14.5,14.5,0,0,0,5.78-1.09,11.44,11.44,0,0,0,4.27-3.16,13.91,13.91,0,0,0,2.65-5.09,24.26,24.26,0,0,0,.89-6.85c0-5.26-1.17-9.27-3.5-12.06S1393.34,229.21,1389,229.21Z" transform="translate(-20.17 -19.17)"/><path d="M1440.38,230.89a7.26,7.26,0,0,0-4.42-1.26,7.49,7.49,0,0,0-3.42.75,8.58,8.58,0,0,0-2.61,2,11.73,11.73,0,0,0-1.91,2.91,19.43,19.43,0,0,0-1.25,3.45,25,25,0,0,0-.69,3.61,30.54,30.54,0,0,0-.21,3.47V264.9H1421v-39h4.84v8.34h.15a17.48,17.48,0,0,1,1.74-3.83,11.66,11.66,0,0,1,2.41-2.85,9.93,9.93,0,0,1,3-1.77,9.54,9.54,0,0,1,3.41-.61,13.54,13.54,0,0,1,2.12.15,7.59,7.59,0,0,1,1.69.46Z" transform="translate(-20.17 -19.17)"/><path d="M1474.5,264.9l-17.93-19h-.16v19h-4.87V207.16h4.87v36.91h.16l17-18.17H1480l-18.28,18.85,19.73,20.15Z" transform="translate(-20.17 -19.17)"/><path d="M1512.33,211.77a7.67,7.67,0,0,0-4.23-1.07q-6.86,0-6.86,9v6.25H1511v4.27h-9.71V264.9h-4.87V230.17h-6.82V225.9h6.82v-6.55a17.61,17.61,0,0,1,.74-5.31,11.27,11.27,0,0,1,2.19-4.08,9.5,9.5,0,0,1,3.64-2.61,13,13,0,0,1,5-.91,10.82,10.82,0,0,1,4.35.72Z" transform="translate(-20.17 -19.17)"/><path d="M1522.45,264.9V207.16h4.88V264.9Z" transform="translate(-20.17 -19.17)"/><path d="M1559.62,265.81a20.07,20.07,0,0,1-7.79-1.44,16.58,16.58,0,0,1-5.88-4.1,18,18,0,0,1-3.74-6.34,24.69,24.69,0,0,1-1.29-8.19,26,26,0,0,1,1.37-8.72,18.6,18.6,0,0,1,3.9-6.53,16.69,16.69,0,0,1,6.12-4.09,21.63,21.63,0,0,1,8-1.41,19.84,19.84,0,0,1,7.61,1.39,15.34,15.34,0,0,1,5.75,4,17.83,17.83,0,0,1,3.62,6.39,27,27,0,0,1,1.26,8.57,25.17,25.17,0,0,1-1.31,8.32,18.7,18.7,0,0,1-3.76,6.46,16.55,16.55,0,0,1-5.94,4.19A20.08,20.08,0,0,1,1559.62,265.81Zm.38-36.6a14.58,14.58,0,0,0-5.79,1.11,12.32,12.32,0,0,0-4.44,3.22,14.52,14.52,0,0,0-2.83,5.18,22.56,22.56,0,0,0-1,6.95,20.59,20.59,0,0,0,1,6.59,14.75,14.75,0,0,0,2.8,5,12,12,0,0,0,4.4,3.22,14.33,14.33,0,0,0,5.78,1.13,14.51,14.51,0,0,0,5.79-1.09,11.44,11.44,0,0,0,4.27-3.16,13.91,13.91,0,0,0,2.65-5.09,24.26,24.26,0,0,0,.89-6.85c0-5.26-1.17-9.27-3.5-12.06S1564.34,229.21,1560,229.21Z" transform="translate(-20.17 -19.17)"/><path d="M1626.76,264.9h-4.88l-8.26-28.64a20.29,20.29,0,0,1-.61-3.47h-.16q-.07.59-.24,1.41a17.47,17.47,0,0,1-.56,2L1603,264.9h-4.76l-11.81-39h5.22l8.57,30.24a17.44,17.44,0,0,1,.54,3.39h.3c0-.46.13-1,.25-1.56a18.27,18.27,0,0,1,.47-1.87l9.45-30.2h4l8.45,30.28a23.12,23.12,0,0,1,.57,3.39h.31a5.31,5.31,0,0,1,.15-1.51c.13-.57.29-1.2.49-1.88l8.57-30.28h4.92Z" transform="translate(-20.17 -19.17)"/><path d="M431.3,174.28v-67.9h-81v67.9h-9.77V32.74h9.77V97.49h81V32.74H441V174.28Z" transform="translate(-20.17 -19.17)"/><path d="M513.53,120.49v53.79h-9.68V120.69L460.52,32.74h11l33,68.21q1.77,3.55,4.44,10.46h.39a102.74,102.74,0,0,1,4.84-10.26l34.55-68.41h10.56Z" transform="translate(-20.17 -19.17)"/><path d="M578.17,174.28V32.74h37.21q16.68,0,26.55,9t9.87,23.78a35.39,35.39,0,0,1-6.56,21.37,35,35,0,0,1-18.31,12.78v.4q14.7,1.38,23.19,10.51t8.49,23.25q0,17.87-11.55,29.16t-30.89,11.3Zm9.77-132.55V96.51h19.74q15.41,0,24.68-7.9t9.28-21.42q0-25.47-30.11-25.46Zm0,63.66v60H614.2q16.68,0,25.51-8t8.83-22.71q0-29.31-39.77-29.31Z" transform="translate(-20.17 -19.17)"/><path d="M756.53,174.28l-18.85-41.45Q731.85,120,726,115.6t-14.61-4.39H693.85v63.07h-9.77V32.74h39.28q18.76,0,29.47,10.12t10.71,26.7q0,15.3-8.79,25.56t-24.58,13.23v.4q8.4,3.34,16.39,20.43l21,45.1ZM693.85,41.73v60.6h24.38q16.18,0,25.71-8.49t9.53-23.29q0-13.53-8.59-21.17T720.3,41.73Z" transform="translate(-20.17 -19.17)"/><path d="M791.21,174.28V32.74H801V174.28Z" transform="translate(-20.17 -19.17)"/><path d="M833.59,174.28V32.74H869q35.24,0,53.6,17.57T941,101.54q0,32.37-19.69,52.56T867,174.28Zm9.77-132.55V165.4h22.21q31.48,0,48.36-16.33t16.88-47.13q0-60.21-63.27-60.21Z" transform="translate(-20.17 -19.17)"/><path class="cls-1" d="M1055.65,58.7h-49.94V93.45h45.89v25.86h-45.89v55H973.83V32.74h81.82Z" transform="translate(-20.17 -19.17)"/><path class="cls-1" d="M1142.42,176.75q-30.4,0-49.55-19.79t-19.15-51.57q0-33.56,19.44-54.29t51.53-20.72q30.3,0,49,19.83t18.71,52.32q0,33.36-19.4,53.79T1142.42,176.75Zm1.38-118.94q-16.79,0-26.65,12.59t-9.87,33.31q0,21,9.87,33.26T1143,149.21q16.48,0,26.15-11.89t9.68-33q0-22-9.38-34.25T1143.8,57.81Z" transform="translate(-20.17 -19.17)"/><path class="cls-1" d="M1351.37,174.28h-36.62l-22-36.42q-2.46-4.14-4.74-7.4a41,41,0,0,0-4.59-5.58,18.32,18.32,0,0,0-4.83-3.55,12.33,12.33,0,0,0-5.48-1.23h-8.59v54.18h-31.88V32.74h50.54q51.52,0,51.52,38.5a40,40,0,0,1-2.27,13.67,37.8,37.8,0,0,1-6.42,11.3,40.7,40.7,0,0,1-10,8.69,51.9,51.9,0,0,1-13.08,5.72v.4a20.23,20.23,0,0,1,6.12,3.2,43.51,43.51,0,0,1,5.72,5.19,72.42,72.42,0,0,1,5.28,6.36q2.52,3.4,4.59,6.66ZM1264.51,56.63V96h13.82q10.26,0,16.48-5.92a19.76,19.76,0,0,0,6.32-14.9q0-18.55-22.21-18.56Z" transform="translate(-20.17 -19.17)"/><path class="cls-1" d="M1524.16,174.28h-31.49V89.6q0-13.72,1.19-30.3h-.79a151.52,151.52,0,0,1-4.44,18.75l-33.17,96.23H1429.4L1395.65,79q-1.38-3.86-4.44-19.74h-.89q1.28,20.92,1.28,36.71v78.27h-28.72V32.74h46.68l28.92,83.9a118.14,118.14,0,0,1,5,20.24h.59a203.93,203.93,0,0,1,5.63-20.44l28.92-83.7h45.5Z" transform="translate(-20.17 -19.17)"/><path class="cls-1" d="M1547.56,168.85V137.27a60.68,60.68,0,0,0,18.65,10.81,60,60,0,0,0,20.33,3.6,45.39,45.39,0,0,0,10.52-1.08,24.67,24.67,0,0,0,7.5-3,13.13,13.13,0,0,0,4.49-4.54,11.27,11.27,0,0,0,1.48-5.67,12.26,12.26,0,0,0-2.37-7.4,25.35,25.35,0,0,0-6.47-6,66.71,66.71,0,0,0-9.72-5.33q-5.62-2.57-12.14-5.24-16.57-6.9-24.72-16.87T1547,72.42q0-11.06,4.45-19a37.85,37.85,0,0,1,12.09-13.08,54.4,54.4,0,0,1,17.71-7.55,91.21,91.21,0,0,1,21.32-2.41,128.22,128.22,0,0,1,19.6,1.33,77.26,77.26,0,0,1,15.74,4.09V65.32a47.17,47.17,0,0,0-7.75-4.35,62.17,62.17,0,0,0-8.64-3.11,65.34,65.34,0,0,0-8.83-1.82,61.69,61.69,0,0,0-8.34-.59,43.55,43.55,0,0,0-9.87,1,25.58,25.58,0,0,0-7.5,2.91,14.57,14.57,0,0,0-4.74,4.5,10.62,10.62,0,0,0-1.68,5.87,11.19,11.19,0,0,0,1.88,6.36,21.18,21.18,0,0,0,5.33,5.33,56,56,0,0,0,8.39,4.94q4.94,2.42,11.15,5a125.28,125.28,0,0,1,15.25,7.55,54.36,54.36,0,0,1,11.6,9,35.24,35.24,0,0,1,7.4,11.49,40.71,40.71,0,0,1,2.57,15.06q0,11.84-4.49,19.89a36.51,36.51,0,0,1-12.19,13,52.86,52.86,0,0,1-17.92,7.16,103.36,103.36,0,0,1-21.56,2.17,120.44,120.44,0,0,1-22.16-2A66.7,66.7,0,0,1,1547.56,168.85Z" transform="translate(-20.17 -19.17)"/><path class="cls-1" d="M1678.88,77.16A26.22,26.22,0,0,1,1652.53,51a25.3,25.3,0,0,1,7.74-18.68,26.37,26.37,0,0,1,45,18.54,25.41,25.41,0,0,1-7.7,18.66A25.4,25.4,0,0,1,1678.88,77.16Zm-.18-49.58a22,22,0,0,0-16.24,6.86A22.64,22.64,0,0,0,1655.68,51a22.53,22.53,0,0,0,6.74,16.39,22,22,0,0,0,16.28,6.84A23.39,23.39,0,0,0,1702.07,51a23.46,23.46,0,0,0-23.37-23.37Zm8.51,39.63-4-8.63a14.21,14.21,0,0,0-3.39-5.07,5.86,5.86,0,0,0-3.71-1.29h-3.37v15h-3.6V33.37h9.25q5.61,0,8.64,2.43a7.9,7.9,0,0,1,3,6.47q0,7.75-8.85,9.38v.13c2,.41,3.86,2.45,5.61,6.14l4.47,9.29ZM1672.7,36.13V49.41h6.09a8.16,8.16,0,0,0,5.48-1.75,6,6,0,0,0,2.06-4.82q0-6.72-8.37-6.71Z" transform="translate(-20.17 -19.17)"/><path class="cls-1" d="M150.17,19.17a130,130,0,1,0,130,130A130,130,0,0,0,150.17,19.17ZM97,185H73a6,6,0,0,1-6-6V72a6,6,0,0,1,6-6H180a6,6,0,0,1,6,6V96a6,6,0,0,1-12,0V78H79v95H97a6,6,0,0,1,0,12Zm12.29-25.89-18.2-18.2a6,6,0,0,1,8.49-8.49l14,14,41.75-41.75a6,6,0,0,1,8.49,8.48l-46,46a6,6,0,0,1-8.49,0Zm17.51,66.27s-1.63,2.93-4.43,3.57a6.94,6.94,0,0,1-5.63-1,7.11,7.11,0,0,1-.84-.8,7.6,7.6,0,0,1-1.42-5.73,8.07,8.07,0,0,1,3.1-4.85l2.87-3.45,4.43,4.17h0l.33.32.33.31h0l4.36,4.25ZM139,218.74l-1.47.28-7-6.46,0,0-8-7.55.19-1.5s-.74-4.24,3.06-8.93l87.9-87.89,7.32,6.89,0,0,8.51,7.91-81.81,93.6C143.33,219.19,139,218.74,139,218.74ZM226,234H156a6,6,0,0,1,0-12h70a6,6,0,0,1,0,12Zm8.56-117.89-7.46-7.24-.56-.52-7.63-7.06s8.57-14,18.74-4.34h0l.11.11.12.1h0C248,106.8,234.56,116.11,234.56,116.11Z" transform="translate(-20.17 -19.17)"/></svg>