<?xml version="1.0" encoding="utf-8"?>
<!-- Generator: Adobe Illustrator 19.1.0, SVG Export Plug-In . SVG Version: 6.00 Build 0)  -->
<svg version="1.1" id="Ebene_1" xmlns="http://www.w3.org/2000/svg" xmlns:xlink="http://www.w3.org/1999/xlink" x="0px" y="0px"
	 width="80px" height="80px" viewBox="-265 357 80 80" style="enable-background:new -265 357 80 80;" xml:space="preserve">
<style type="text/css">
	.st0{fill:#2989E3;}
	.st1{fill:#FFFFFF;}
</style>
<g id="Ebene_1_1_">
</g>
<g id="Ebene_1_2_">
</g>
<circle class="st0" cx="-225" cy="397" r="31.8"/>
<path class="st1" d="M-212.1,411.7"/>
<path class="st1" d="M-216,416.2l-3.3,1.4l-3.4-5.5c-0.4,0-0.7,0.1-1.1,0.1s-0.7,0-1.1,0s-0.7,0-1.1,0s-0.7-0.1-1.1-0.1l-3.5,5.5
	l-4.9-2l1.5-6.3c-0.6-0.5-1.1-1-1.7-1.5c-0.5-0.5-1-1-1.5-1.6l-6.3,1.5l-2-4.9l5.5-3.4c0-0.4-0.1-0.7-0.1-1.1s0-0.7,0-1.1
	s0-0.7,0-1.1s0.1-0.7,0.1-1.1l-5.5-3.5l2-4.9l6.3,1.5c0.5-0.6,1-1.1,1.5-1.7s1-1,1.6-1.5l-1.5-6.3l4.9-2l3.4,5.5
	c0.4,0,0.7-0.1,1.1-0.1s0.7,0,1.1,0s0.7,0,1.1,0s0.7,0.1,1.1,0.1l3.5-5.5l4.9,2l-1.5,6.3c0.6,0.5,1.1,1,1.7,1.5s1,1,1.5,1.6l6.3-1.5
	l2,4.9l-5.5,3.4c0,0.4,0.1,0.7,0.1,1.1s0,0.7,0,1.1s0,0.7,0,1.1s-0.1,0.7-0.1,1.1l5.5,3.5l-1.5,3.6l2,2l2.8-6.6l-6.1-3.8
	c0-0.1,0-0.3,0-0.4s0-0.3,0-0.4s0-0.3,0-0.4s0-0.3,0-0.4l6.1-3.8l-3.7-9l-7,1.6c-0.4-0.4-0.8-0.8-1.2-1.2l1.6-7l-9-3.7l-3.8,6.1
	c-0.1,0-0.3,0-0.4,0s-0.3,0-0.4,0s-0.3,0-0.4,0s-0.3,0-0.4,0l-3.8-6.1l-9,3.7l1.6,7c-0.4,0.4-0.8,0.8-1.2,1.2l-7-1.6l-3.7,9l6.1,3.8
	c0,0.1,0,0.3,0,0.4s0,0.3,0,0.4s0,0.3,0,0.4s0,0.3,0,0.4l-6.1,3.8l3.7,9l7-1.6c0.4,0.4,0.8,0.8,1.2,1.2l-1.6,7l9,3.7l3.8-6.1
	c0.1,0,0.3,0,0.4,0s0.3,0,0.4,0s0.3,0,0.4,0s0.3,0,0.4,0l3.8,6.1l6.4-2.6L-216,416.2z"/>
<path class="st1" d="M-213.6,392.4c-0.6-1.4-1.5-2.7-2.5-3.7c-1.1-1.1-2.3-1.9-3.7-2.5s-3-0.9-4.6-0.9s-3.2,0.3-4.6,0.9
	c-1.4,0.6-2.7,1.5-3.7,2.5c-1.1,1.1-1.9,2.3-2.5,3.7s-0.9,3-0.9,4.6s0.3,3.2,0.9,4.6c0.6,1.4,1.5,2.7,2.5,3.7
	c1.1,1.1,2.3,1.9,3.7,2.5s3,0.9,4.6,0.9c0.5,0,1,0,1.5-0.1l-1.2-1.2c-0.1,0-0.2,0-0.3,0c-5.8,0-10.5-4.7-10.5-10.5
	s4.7-10.5,10.5-10.5s10.5,4.7,10.5,10.5c0,0.2,0,0.4,0,0.7l1.2,1.2c0.1-0.6,0.1-1.2,0.1-1.8C-212.7,395.4-213,393.8-213.6,392.4z"/>
<path class="st1" d="M-194.5,422.2l-1.8-1.8l-21.3-21.3c0,0,2.1-8.4-8.5-8.4l5,5l-2.2,2.2l0,0l-2.3,2.3l-5-5
	c-0.1,10.5,8.4,8.5,8.4,8.5l21.3,21.3l1.8,1.8l1.8-1.8l0,0L-194.5,422.2z"/>
</svg>
