<?xml version="1.0" encoding="utf-8"?>
<!-- Generator: Adobe Illustrator 22.1.0, SVG Export Plug-In . SVG Version: 6.00 Build 0)  -->
<svg version="1.1" id="Ebene_1" xmlns="http://www.w3.org/2000/svg" xmlns:xlink="http://www.w3.org/1999/xlink" x="0px" y="0px"
	 width="20px" height="25px" viewBox="0 0 20 25" style="enable-background:new 0 0 20 25;" xml:space="preserve">
<style type="text/css">
	.st0{fill:#FFFFFF;}
</style>
<path class="st0" d="M15,3.6H6.7v9.7h1V4.5h6.6v3.8h3.9V18h-1v0.8h2V7.7L15,3.6z M15.3,7.3V5.1l2.2,2.2C17.5,7.3,15.3,7.3,15.3,7.3z
	"/>
<g>
	<path class="st0" d="M3.8,18.3v1.5H2.9v-4.1h1.5c1,0,1.5,0.4,1.5,1.3c0,0.4-0.1,0.7-0.4,1s-0.7,0.4-1.2,0.4L3.8,18.3L3.8,18.3z
		 M3.8,16.4v1.3h0.3c0.4,0,0.7-0.1,0.7-0.6c0-0.4-0.3-0.6-0.7-0.6L3.8,16.4L3.8,16.4z"/>
	<path class="st0" d="M6.7,19.8v-4.1h1.5c1.5,0,2.2,0.6,2.2,1.9c0,0.6-0.1,1.2-0.6,1.5c-0.4,0.4-0.9,0.6-1.6,0.6H6.7V19.8z
		 M7.6,16.4v2.7H8c0.4,0,0.7-0.1,0.9-0.3c0.3-0.4,0.4-0.7,0.4-1.2c0-0.4-0.1-0.7-0.3-0.9c-0.1-0.1-0.6-0.3-0.9-0.3
		C8.1,16.4,7.6,16.4,7.6,16.4z"/>
	<path class="st0" d="M13.7,16.4h-1.3v1h1.3v0.7h-1.3v1.6h-1v-4.1h2.4C13.7,15.6,13.7,16.4,13.7,16.4z"/>
</g>
<path class="st0" d="M0.8,14v7.4h14.9V14H0.8z M14.7,20.6h-0.1h-13V15h13.1V20.6z"/>
</svg>
